Primera-Regular.ufo
<glyph name="exclam" format="2">
  <advance width="137"/>
  <unicode hex="0021"/>
  <outline>
    <contour>
      <point x="37" y="164" type="line"/>
      <point x="150" y="164" type="line"/>
      <point x="233" y="686" type="line"/>
      <point x="120" y="686" type="line"/>
    </contour>
    <contour>
      <point x="126" y="10" type="line"/>
      <point x="143" y="121" type="line"/>
      <point x="30" y="121" type="line"/>
      <point x="13" y="10" type="line"/>
    </contour>
  </outline>
</glyph>
<glyph name="numbersign" format="2">
  <advance width="716"/>
  <unicode hex="0023"/>
  <outline>
    <contour>
      <point x="326" y="277" type="line"/>
      <point x="348" y="413" type="line"/>
      <point x="479" y="413" type="line"/>
      <point x="457" y="277" type="line"/>
    </contour>
    <contour>
      <point x="570" y="277" type="line"/>
      <point x="592" y="413" type="line"/>
      <point x="733" y="413" type="line"/>
      <point x="751" y="527" type="line"/>
      <point x="610" y="527" type="line"/>
      <point x="635" y="686" type="line"/>
      <point x="522" y="686" type="line"/>
      <point x="497" y="527" type="line"/>
      <point x="366" y="527" type="line"/>
      <point x="391" y="686" type="line"/>
      <point x="278" y="686" type="line"/>
      <point x="253" y="527" type="line"/>
      <point x="120" y="527" type="line"/>
      <point x="102" y="413" type="line"/>
      <point x="235" y="413" type="line"/>
      <point x="213" y="277" type="line"/>
      <point x="81" y="277" type="line"/>
      <point x="63" y="163" type="line"/>
      <point x="195" y="163" type="line"/>
      <point x="171" y="10" type="line"/>
      <point x="284" y="10" type="line"/>
      <point x="308" y="163" type="line"/>
      <point x="439" y="163" type="line"/>
      <point x="415" y="10" type="line"/>
      <point x="528" y="10" type="line"/>
      <point x="552" y="163" type="line"/>
      <point x="694" y="163" type="line"/>
      <point x="712" y="277" type="line"/>
    </contour>
  </outline>
</glyph>
<glyph name="dollar" format="2">
  <advance width="423"/>
  <unicode hex="0024"/>
  <outline>
    <contour>
      <point x="303" y="273" type="line"/>
      <point x="337" y="253" type="line"/>
      <point x="318" y="133" type="line"/>
      <point x="280" y="133" type="line"/>
    </contour>
    <contour>
      <point x="250" y="443" type="line"/>
      <point x="199" y="472" type="line"/>
      <point x="215" y="569" type="line"/>
      <point x="270" y="569" type="line"/>
    </contour>
    <contour>
      <point x="246" y="-79" type="line"/>
      <point x="260" y="10" type="line"/>
      <point x="412" y="10" type="line"/>
      <point x="462" y="323" type="line"/>
      <point x="323" y="402" type="line"/>
      <point x="350" y="569" type="line"/>
      <point x="387" y="569" type="line"/>
      <point x="370" y="467" type="line"/>
      <point x="492" y="516" type="line"/>
      <point x="519" y="686" type="line"/>
      <point x="369" y="686" type="line"/>
      <point x="386" y="793" type="line"/>
      <point x="306" y="793" type="line"/>
      <point x="289" y="686" type="line"/>
      <point x="120" y="686" type="line"/>
      <point x="76" y="405" type="line"/>
      <point x="229" y="316" type="line"/>
      <point x="200" y="133" type="line"/>
      <point x="145" y="133" type="line"/>
      <point x="161" y="239" type="line"/>
      <point x="49" y="239" type="line"/>
      <point x="13" y="10" type="line"/>
      <point x="180" y="10" type="line"/>
      <point x="166" y="-79" type="line"/>
    </contour>
  </outline>
</glyph>
<glyph name="percent" format="2">
  <advance width="647"/>
  <unicode hex="0025"/>
  <outline>
    <contour>
      <point x="436" y="133" type="line"/>
      <point x="453" y="237" type="line"/>
      <point x="546" y="237" type="line"/>
      <point x="529" y="133" type="line"/>
    </contour>
    <contour>
      <point x="224" y="465" type="line" name=".hr01"/>
      <point x="241" y="569" type="line"/>
      <point x="334" y="569" type="line"/>
      <point x="317" y="465" type="line"/>
    </contour>
    <contour>
      <point x="92" y="342" type="line" name=".hr03"/>
      <point x="306" y="342" type="line"/>
      <point x="35" y="10" type="line"/>
      <point x="188" y="10" type="line"/>
      <point x="332" y="187" type="line"/>
      <point x="304" y="10" type="line"/>
      <point x="622" y="10" type="line"/>
      <point x="677" y="354" type="line" name=".hr02"/>
      <point x="469" y="354" type="line"/>
      <point x="740" y="686" type="line"/>
      <point x="587" y="686" type="line"/>
      <point x="435" y="500" type="line"/>
      <point x="465" y="686" type="line"/>
      <point x="147" y="686" type="line"/>
    </contour>
  </outline>
</glyph>
<glyph name="ampersand" format="2">
  <advance width="522"/>
  <unicode hex="0026"/>
  <outline>
    <contour>
      <point x="176" y="242" type="line"/>
      <point x="354" y="292" type="line"/>
      <point x="330" y="133" type="line"/>
      <point x="157" y="133" type="line"/>
    </contour>
    <contour>
      <point x="197" y="369" type="line"/>
      <point x="227" y="569" type="line"/>
      <point x="512" y="569" type="line"/>
      <point x="531" y="686" type="line"/>
      <point x="132" y="686" type="line"/>
      <point x="25" y="10" type="line"/>
      <point x="424" y="10" type="line"/>
      <point x="473" y="325" type="line"/>
      <point x="543" y="345" type="line"/>
      <point x="563" y="461" type="line"/>
      <point x="492" y="443" type="line"/>
      <point x="500" y="495" type="line"/>
      <point x="385" y="495" type="line"/>
      <point x="372" y="413" type="line"/>
    </contour>
  </outline>
</glyph>
<glyph name="quotesingle" format="2">
  <advance width="224"/>
  <unicode hex="0027"/>
  <outline>
    <contour>
      <point x="129" y="451" type="line"/>
      <point x="242" y="451" type="line"/>
      <point x="280" y="686" type="line"/>
      <point x="167" y="686" type="line"/>
    </contour>
  </outline>
</glyph>
<glyph name="parenleft" format="2">
  <advance width="242"/>
  <unicode hex="0028"/>
  <outline>
    <contour>
      <point x="333" y="-183" type="line"/>
      <point x="352" y="-66" type="line"/>
      <point x="275" y="-66" type="line"/>
      <point x="174" y="8" type="line"/>
      <point x="278" y="661" type="line"/>
      <point x="403" y="735" type="line"/>
      <point x="479" y="735" type="line"/>
      <point x="497" y="851" type="line"/>
      <point x="393" y="851" type="line"/>
      <point x="177" y="729" type="line"/>
      <point x="51" y="-60" type="line"/>
      <point x="229" y="-183" type="line"/>
    </contour>
  </outline>
</glyph>
<glyph name="parenright" format="2">
  <advance width="318"/>
  <unicode hex="0029"/>
  <outline>
    <contour>
      <point x="73" y="851" type="line"/>
      <point x="54" y="734" type="line"/>
      <point x="131" y="734" type="line"/>
      <point x="232" y="660" type="line"/>
      <point x="128" y="7" type="line"/>
      <point x="3" y="-67" type="line"/>
      <point x="-73" y="-67" type="line"/>
      <point x="-91" y="-183" type="line"/>
      <point x="13" y="-183" type="line"/>
      <point x="229" y="-61" type="line"/>
      <point x="355" y="728" type="line"/>
      <point x="177" y="851" type="line"/>
    </contour>
  </outline>
</glyph>
<glyph name="asterisk" format="2">
  <advance width="474"/>
  <unicode hex="002A"/>
  <outline>
    <contour>
      <point x="145" y="602" type="line"/>
      <point x="236" y="512" type="line"/>
      <point x="108" y="430" type="line"/>
      <point x="184" y="347" type="line"/>
      <point x="237" y="381" type="line"/>
      <point x="222" y="295" type="line"/>
      <point x="323" y="295" type="line"/>
      <point x="342" y="407" type="line"/>
      <point x="417" y="333" type="line"/>
      <point x="495" y="397" type="line"/>
      <point x="402" y="488" type="line"/>
      <point x="531" y="572" type="line"/>
      <point x="467" y="658" type="line"/>
      <point x="375" y="599" type="line"/>
      <point x="392" y="700" type="line"/>
      <point x="291" y="700" type="line"/>
      <point x="276" y="613" type="line"/>
      <point x="224" y="664" type="line"/>
    </contour>
  </outline>
</glyph>
<glyph name="plus" format="2">
  <advance width="310"/>
  <unicode hex="002B"/>
  <outline>
    <contour>
      <point x="167" y="444" type="line"/>
      <point x="96" y="444" type="line"/>
      <point x="78" y="330" type="line"/>
      <point x="149" y="330" type="line"/>
      <point x="139" y="264" type="line"/>
      <point x="252" y="264" type="line"/>
      <point x="262" y="330" type="line"/>
      <point x="345" y="330" type="line"/>
      <point x="363" y="444" type="line"/>
      <point x="280" y="444" type="line"/>
      <point x="291" y="510" type="line"/>
      <point x="178" y="510" type="line"/>
    </contour>
  </outline>
</glyph>
<glyph name="comma" format="2">
  <advance width="181"/>
  <unicode hex="002C"/>
  <outline>
    <contour>
      <point x="126" y="10" type="line"/>
      <point x="152" y="177" type="line"/>
      <point x="39" y="177" type="line"/>
      <point x="13" y="10" type="line"/>
    </contour>
  </outline>
</glyph>
<glyph name="hyphen" format="2">
  <advance width="337"/>
  <unicode hex="002D"/>
  <outline>
    <contour>
      <point x="380" y="432" type="line"/>
      <point x="100" y="432" type="line"/>
      <point x="82" y="318" type="line"/>
      <point x="362" y="318" type="line"/>
    </contour>
  </outline>
</glyph>
<glyph name="period" format="2">
  <advance width="168"/>
  <unicode hex="002E"/>
  <outline>
    <contour>
      <point x="36" y="69" type="line"/>
      <point x="149" y="69" type="line"/>
      <point x="166" y="177" type="line"/>
      <point x="53" y="177" type="line"/>
    </contour>
  </outline>
</glyph>
<glyph name="slash" format="2">
  <advance width="432"/>
  <unicode hex="002F"/>
  <outline>
    <contour>
      <point x="35" y="10" type="line"/>
      <point x="164" y="10" type="line"/>
      <point x="523" y="686" type="line"/>
      <point x="394" y="686" type="line"/>
    </contour>
  </outline>
</glyph>
<glyph name="one" format="2">
  <advance width="407"/>
  <unicode hex="0031"/>
  <outline>
    <contour>
      <point x="183" y="10" type="line"/>
      <point x="295" y="10" type="line"/>
      <point x="402" y="686" type="line"/>
      <point x="174" y="686" type="line"/>
      <point x="155" y="569" type="line"/>
      <point x="272" y="569" type="line"/>
    </contour>
  </outline>
</glyph>
<glyph name="two" format="2">
  <advance width="423"/>
  <unicode hex="0032"/>
  <outline>
    <contour>
      <point x="412" y="10" type="line"/>
      <point x="440" y="189" type="line"/>
      <point x="327" y="189" type="line"/>
      <point x="319" y="133" type="line"/>
      <point x="145" y="133" type="line"/>
      <point x="159" y="223" type="line"/>
      <point x="487" y="481" type="line"/>
      <point x="519" y="686" type="line"/>
      <point x="120" y="686" type="line"/>
      <point x="95" y="527" type="line"/>
      <point x="208" y="527" type="line"/>
      <point x="215" y="569" type="line"/>
      <point x="389" y="569" type="line"/>
      <point x="381" y="523" type="line"/>
      <point x="51" y="273" type="line"/>
      <point x="13" y="10" type="line"/>
    </contour>
  </outline>
</glyph>
<glyph name="three" format="2">
  <advance width="423"/>
  <unicode hex="0033"/>
  <outline>
    <contour>
      <point x="329" y="192" type="line"/>
      <point x="233" y="133" type="line"/>
      <point x="146" y="133" type="line"/>
      <point x="155" y="192" type="line"/>
      <point x="42" y="192" type="line"/>
      <point x="13" y="10" type="line"/>
      <point x="257" y="10" type="line"/>
      <point x="428" y="113" type="line"/>
      <point x="478" y="425" type="line"/>
      <point x="408" y="425" type="line"/>
      <point x="487" y="481" type="line"/>
      <point x="519" y="686" type="line"/>
      <point x="120" y="686" type="line"/>
      <point x="95" y="527" type="line"/>
      <point x="208" y="527" type="line"/>
      <point x="215" y="569" type="line"/>
      <point x="389" y="569" type="line"/>
      <point x="381" y="523" type="line"/>
      <point x="203" y="398" type="line"/>
      <point x="203" y="279" type="line"/>
      <point x="271" y="328" type="line"/>
      <point x="350" y="328" type="line"/>
    </contour>
  </outline>
</glyph>
<glyph name="four" format="2">
  <advance width="426"/>
  <unicode hex="0034"/>
  <outline>
    <contour>
      <point x="522" y="686" type="line"/>
      <point x="408" y="686" type="line"/>
      <point x="370" y="444" type="line"/>
      <point x="195" y="444" type="line"/>
      <point x="233" y="686" type="line"/>
      <point x="120" y="686" type="line"/>
      <point x="63" y="330" type="line"/>
      <point x="352" y="330" type="line"/>
      <point x="301" y="10" type="line"/>
      <point x="415" y="10" type="line"/>
    </contour>
  </outline>
</glyph>
<glyph name="six" format="2">
  <advance width="423"/>
  <unicode hex="0036"/>
  <outline>
    <contour>
      <point x="178" y="345" type="line"/>
      <point x="337" y="253" type="line"/>
      <point x="318" y="133" type="line"/>
      <point x="145" y="133" type="line"/>
    </contour>
    <contour>
      <point x="215" y="569" type="line"/>
      <point x="387" y="569" type="line"/>
      <point x="370" y="467" type="line"/>
      <point x="492" y="516" type="line"/>
      <point x="519" y="686" type="line"/>
      <point x="120" y="686" type="line"/>
      <point x="13" y="10" type="line"/>
      <point x="412" y="10" type="line"/>
      <point x="462" y="323" type="line"/>
      <point x="199" y="472" type="line"/>
    </contour>
  </outline>
</glyph>
<glyph name="seven" format="2">
  <advance width="423"/>
  <unicode hex="0037"/>
  <outline>
    <contour>
      <point x="300" y="10" type="line"/>
      <point x="412" y="10" type="line"/>
      <point x="519" y="686" type="line"/>
      <point x="120" y="686" type="line"/>
      <point x="101" y="569" type="line"/>
      <point x="389" y="569" type="line"/>
    </contour>
  </outline>
</glyph>
<glyph name="eight" format="2">
  <advance width="423"/>
  <unicode hex="0038"/>
  <outline>
    <contour>
      <point x="519" y="686" type="line"/>
      <point x="120" y="686" type="line"/>
      <point x="13" y="10" type="line"/>
      <point x="412" y="10" type="line"/>
    </contour>
    <contour>
      <point x="145" y="133" type="line"/>
      <point x="178" y="345" type="line"/>
      <point x="337" y="253" type="line"/>
      <point x="318" y="133" type="line"/>
    </contour>
    <contour>
      <point x="357" y="382" type="line"/>
      <point x="199" y="472" type="line"/>
      <point x="215" y="569" type="line"/>
      <point x="387" y="569" type="line"/>
    </contour>
  </outline>
</glyph>
<glyph name="nine" format="2">
  <advance width="423"/>
  <unicode hex="0039"/>
  <outline>
    <contour>
      <point x="199" y="472" type="line"/>
      <point x="215" y="569" type="line"/>
      <point x="385" y="569" type="line"/>
      <point x="356" y="383" type="line"/>
    </contour>
    <contour>
      <point x="120" y="686" type="line"/>
      <point x="76" y="405" type="line"/>
      <point x="337" y="253" type="line"/>
      <point x="318" y="133" type="line"/>
      <point x="145" y="133" type="line"/>
      <point x="161" y="239" type="line"/>
      <point x="49" y="239" type="line"/>
      <point x="13" y="10" type="line"/>
      <point x="412" y="10" type="line"/>
      <point x="519" y="686" type="line"/>
    </contour>
  </outline>
</glyph>
<glyph name="colon" format="2">
  <advance width="213"/>
  <unicode hex="003A"/>
  <outline>
    <contour>
      <point x="137" y="538" type="line"/>
      <point x="250" y="538" type="line"/>
      <point x="268" y="652" type="line"/>
      <point x="155" y="652" type="line"/>
    </contour>
    <contour>
      <point x="63" y="69" type="line"/>
      <point x="176" y="69" type="line"/>
      <point x="193" y="177" type="line"/>
      <point x="80" y="177" type="line"/>
    </contour>
  </outline>
</glyph>
<glyph name="semicolon" format="2">
  <advance width="228"/>
  <unicode hex="003B"/>
  <outline>
    <contour>
      <point x="142" y="538" type="line"/>
      <point x="255" y="538" type="line"/>
      <point x="273" y="652" type="line"/>
      <point x="160" y="652" type="line"/>
    </contour>
    <contour>
      <point x="172" y="10" type="line"/>
      <point x="198" y="177" type="line"/>
      <point x="85" y="177" type="line"/>
      <point x="59" y="10" type="line"/>
    </contour>
  </outline>
</glyph>
<glyph name="less" format="2">
  <advance width="281"/>
  <unicode hex="003C"/>
  <outline>
    <contour>
      <point x="238" y="41" type="line"/>
      <point x="263" y="194" type="line"/>
      <point x="161" y="331" type="line"/>
      <point x="303" y="474" type="line"/>
      <point x="331" y="653" type="line"/>
      <point x="23" y="343" type="line"/>
    </contour>
  </outline>
</glyph>
<glyph name="equal" format="2">
  <advance width="328"/>
  <unicode hex="003D"/>
  <outline>
    <contour>
      <point x="368" y="444" type="line"/>
      <point x="101" y="444" type="line"/>
      <point x="83" y="330" type="line"/>
      <point x="350" y="330" type="line"/>
    </contour>
    <contour>
      <point x="341" y="270" type="line"/>
      <point x="74" y="270" type="line"/>
      <point x="56" y="156" type="line"/>
      <point x="323" y="156" type="line"/>
    </contour>
  </outline>
</glyph>
<glyph name="greater" format="2">
  <advance width="281"/>
  <unicode hex="003E"/>
  <outline>
    <contour>
      <point x="116" y="653" type="line"/>
      <point x="91" y="500" type="line"/>
      <point x="193" y="363" type="line"/>
      <point x="51" y="220" type="line"/>
      <point x="23" y="41" type="line"/>
      <point x="331" y="351" type="line"/>
    </contour>
  </outline>
</glyph>
<glyph name="question" format="2">
  <advance width="500"/>
  <unicode hex="003F"/>
  <outline>
    <contour>
      <point x="82" y="171" type="line"/>
      <point x="195" y="171" type="line"/>
      <point x="203" y="223" type="line"/>
      <point x="531" y="481" type="line"/>
      <point x="563" y="686" type="line"/>
      <point x="164" y="686" type="line"/>
      <point x="139" y="527" type="line"/>
      <point x="252" y="527" type="line"/>
      <point x="259" y="569" type="line"/>
      <point x="433" y="569" type="line"/>
      <point x="425" y="523" type="line"/>
      <point x="95" y="269" type="line"/>
    </contour>
    <contour>
      <point x="172" y="10" type="line"/>
      <point x="191" y="132" type="line"/>
      <point x="76" y="132" type="line"/>
      <point x="57" y="10" type="line"/>
    </contour>
  </outline>
</glyph>
<glyph name="at" format="2">
  <advance width="928"/>
  <unicode hex="0040"/>
  <outline>
    <contour>
      <point x="393" y="226" type="line"/>
      <point x="429" y="440" type="line"/>
      <point x="603" y="440" type="line"/>
      <point x="567" y="226" type="line"/>
    </contour>
    <contour>
      <point x="261" y="103" type="line"/>
      <point x="878" y="103" type="line"/>
      <point x="988" y="799" type="line"/>
      <point x="164" y="799" type="line"/>
      <point x="15" y="-150" type="line"/>
      <point x="839" y="-150" type="line"/>
      <point x="858" y="-27" type="line"/>
      <point x="147" y="-27" type="line"/>
      <point x="258" y="682" type="line"/>
      <point x="857" y="682" type="line"/>
      <point x="780" y="189" type="line"/>
      <point x="674" y="189" type="line"/>
      <point x="734" y="557" type="line"/>
      <point x="335" y="557" type="line"/>
    </contour>
  </outline>
</glyph>
<glyph name="A" format="2">
  <advance width="422"/>
  <unicode hex="0041"/>
  <outline>
    <contour>
      <point x="215" y="569" type="line"/>
      <point x="275" y="569" type="line"/>
      <point x="376" y="496" type="line"/>
      <point x="352" y="345" type="line"/>
      <point x="179" y="345" type="line"/>
    </contour>
    <contour>
      <point x="411" y="10" type="line"/>
      <point x="499" y="564" type="line"/>
      <point x="321" y="686" type="line"/>
      <point x="120" y="686" type="line"/>
      <point x="13" y="10" type="line"/>
      <point x="126" y="10" type="line"/>
      <point x="161" y="232" type="line"/>
      <point x="334" y="232" type="line"/>
      <point x="299" y="10" type="line"/>
    </contour>
  </outline>
</glyph>
<glyph name="B" format="2">
  <advance width="423"/>
  <unicode hex="0042"/>
  <outline>
    <contour>
      <point x="233" y="133" type="line"/>
      <point x="146" y="133" type="line"/>
      <point x="164" y="252" type="line"/>
      <point x="271" y="328" type="line"/>
      <point x="350" y="328" type="line"/>
      <point x="329" y="192" type="line"/>
    </contour>
    <contour>
      <point x="215" y="569" type="line"/>
      <point x="389" y="569" type="line"/>
      <point x="381" y="523" type="line"/>
      <point x="186" y="386" type="line"/>
    </contour>
    <contour>
      <point x="13" y="10" type="line"/>
      <point x="257" y="10" type="line"/>
      <point x="428" y="113" type="line"/>
      <point x="478" y="425" type="line"/>
      <point x="408" y="425" type="line"/>
      <point x="487" y="481" type="line"/>
      <point x="519" y="686" type="line"/>
      <point x="120" y="686" type="line"/>
    </contour>
  </outline>
</glyph>
<glyph name="D" format="2">
  <advance width="422"/>
  <unicode hex="0044"/>
  <outline>
    <contour>
      <point x="120" y="686" type="line"/>
      <point x="13" y="10" type="line"/>
      <point x="411" y="10" type="line"/>
      <point x="499" y="563" type="line"/>
      <point x="321" y="686" type="line"/>
    </contour>
    <contour>
      <point x="275" y="569" type="line"/>
      <point x="376" y="495" type="line"/>
      <point x="319" y="133" type="line"/>
      <point x="146" y="133" type="line"/>
      <point x="215" y="569" type="line"/>
    </contour>
  </outline>
</glyph>
<glyph name="G" format="2">
  <advance width="423"/>
  <unicode hex="0047"/>
  <outline>
    <contour>
      <point x="120" y="686" type="line"/>
      <point x="13" y="10" type="line"/>
      <point x="412" y="10" type="line"/>
      <point x="485" y="472" type="line"/>
      <point x="249" y="359" type="line"/>
      <point x="229" y="227" type="line"/>
      <point x="344" y="288" type="line"/>
      <point x="320" y="133" type="line"/>
      <point x="146" y="133" type="line"/>
      <point x="215" y="569" type="line"/>
      <point x="501" y="569" type="line"/>
      <point x="519" y="686" type="line"/>
    </contour>
  </outline>
</glyph>
<glyph name="J" format="2">
  <advance width="418"/>
  <unicode hex="004A"/>
  <outline>
    <contour>
      <point x="383" y="569" type="line"/>
      <point x="319" y="170" type="line"/>
      <point x="228" y="133" type="line"/>
      <point x="150" y="170" type="line"/>
      <point x="169" y="287" type="line"/>
      <point x="57" y="287" type="line"/>
      <point x="27" y="95" type="line"/>
      <point x="208" y="10" type="line"/>
      <point x="421" y="95" type="line"/>
      <point x="514" y="686" type="line"/>
      <point x="120" y="686" type="line"/>
      <point x="102" y="569" type="line"/>
    </contour>
  </outline>
</glyph>
<glyph name="P" format="2">
  <advance width="410"/>
  <unicode hex="0050"/>
  <outline>
    <contour>
      <point x="215" y="569" type="line"/>
      <point x="372" y="569" type="line"/>
      <point x="356" y="469" type="line"/>
      <point x="177" y="332" type="line"/>
    </contour>
    <contour>
      <point x="464" y="419" type="line"/>
      <point x="506" y="686" type="line"/>
      <point x="120" y="686" type="line"/>
      <point x="13" y="10" type="line"/>
      <point x="126" y="10" type="line"/>
      <point x="155" y="190" type="line"/>
    </contour>
  </outline>
</glyph>
<glyph name="Q" format="2">
  <advance width="451"/>
  <unicode hex="0051"/>
  <outline>
    <contour>
      <point x="120" y="686" type="line"/>
      <point x="13" y="10" type="line"/>
      <point x="146" y="10" type="line"/>
      <point x="166" y="133" type="line"/>
      <point x="145" y="133" type="line"/>
      <point x="214" y="569" type="line"/>
      <point x="416" y="569" type="line"/>
      <point x="347" y="133" type="line"/>
      <point x="323" y="133" type="line"/>
      <point x="303" y="10" type="line"/>
      <point x="440" y="10" type="line"/>
      <point x="547" y="686" type="line"/>
    </contour>
    <contour>
      <point x="334" y="335" type="line"/>
      <point x="210" y="267" type="line"/>
      <point x="151" y="-106" type="line"/>
      <point x="276" y="-28" type="line"/>
    </contour>
  </outline>
</glyph>
<glyph name="T" format="2">
  <advance width="377"/>
  <unicode hex="0054"/>
  <outline>
    <contour>
      <point x="102" y="569" type="line"/>
      <point x="224" y="569" type="line"/>
      <point x="135" y="10" type="line"/>
      <point x="248" y="10" type="line"/>
      <point x="337" y="569" type="line"/>
      <point x="455" y="569" type="line"/>
      <point x="473" y="686" type="line"/>
      <point x="120" y="686" type="line"/>
    </contour>
  </outline>
</glyph>
<glyph name="V" format="2">
  <advance width="422"/>
  <unicode hex="0056"/>
  <outline>
    <contour>
      <point x="144" y="126" type="line"/>
      <point x="233" y="686" type="line"/>
      <point x="120" y="686" type="line"/>
      <point x="13" y="10" type="line"/>
      <point x="214" y="10" type="line"/>
      <point x="430" y="132" type="line"/>
      <point x="518" y="686" type="line"/>
      <point x="406" y="686" type="line"/>
      <point x="329" y="200" type="line"/>
      <point x="204" y="126" type="line"/>
    </contour>
  </outline>
</glyph>
<glyph name="X" format="2">
  <advance width="405"/>
  <unicode hex="0058"/>
  <outline>
    <contour>
      <point x="273" y="450" type="line"/>
      <point x="213" y="560" type="line"/>
      <point x="233" y="686" type="line"/>
      <point x="120" y="686" type="line"/>
      <point x="93" y="512" type="line"/>
      <point x="183" y="346" type="line"/>
      <point x="40" y="181" type="line"/>
      <point x="13" y="10" type="line"/>
      <point x="126" y="10" type="line"/>
      <point x="145" y="132" type="line"/>
      <point x="240" y="242" type="line"/>
      <point x="300" y="132" type="line"/>
      <point x="281" y="10" type="line"/>
      <point x="394" y="10" type="line"/>
      <point x="421" y="181" type="line"/>
      <point x="330" y="346" type="line"/>
      <point x="474" y="512" type="line"/>
      <point x="501" y="686" type="line"/>
      <point x="388" y="686" type="line"/>
      <point x="368" y="560" type="line"/>
    </contour>
  </outline>
</glyph>
<glyph name="bracketleft" format="2">
  <advance width="235"/>
  <unicode hex="005B"/>
  <outline>
    <contour>
      <point x="293" y="781" type="line"/>
      <point x="580" y="781" type="line"/>
      <point x="599" y="904" type="line"/>
      <point x="200" y="904" type="line"/>
      <point x="25" y="-201" type="line"/>
      <point x="424" y="-201" type="line"/>
      <point x="443" y="-84" type="line"/>
      <point x="156" y="-84" type="line"/>
    </contour>
  </outline>
</glyph>
<glyph name="backslash" format="2">
  <advance width="500"/>
  <unicode hex="005C"/>
  <outline>
    <contour>
      <point x="356" y="10" type="line"/>
      <point x="480" y="10" type="line"/>
      <point x="239" y="686" type="line"/>
      <point x="115" y="686" type="line"/>
    </contour>
  </outline>
</glyph>
<glyph name="bracketright" format="2">
  <advance width="235"/>
  <unicode hex="005D"/>
  <outline>
    <contour>
      <point x="62" y="-78" type="line"/>
      <point x="-225" y="-78" type="line"/>
      <point x="-244" y="-201" type="line"/>
      <point x="155" y="-201" type="line"/>
      <point x="330" y="904" type="line"/>
      <point x="-69" y="904" type="line"/>
      <point x="-88" y="787" type="line"/>
      <point x="199" y="787" type="line"/>
    </contour>
  </outline>
</glyph>
<glyph name="asciicircum" format="2">
  <advance width="651"/>
  <unicode hex="005E"/>
  <outline>
    <contour>
      <point x="433" y="513" type="line"/>
      <point x="547" y="297" type="line"/>
      <point x="677" y="297" type="line"/>
      <point x="486" y="671" type="line"/>
      <point x="423" y="671" type="line"/>
      <point x="74" y="297" type="line"/>
      <point x="229" y="297" type="line"/>
    </contour>
  </outline>
</glyph>
<glyph name="underscore" format="2">
  <advance width="394"/>
  <unicode hex="005F"/>
  <outline>
    <contour>
      <point x="379" y="-49" type="line"/>
      <point x="34" y="-49" type="line"/>
      <point x="16" y="-163" type="line"/>
      <point x="361" y="-163" type="line"/>
    </contour>
  </outline>
</glyph>
<glyph name="e" format="2">
  <advance width="411"/>
  <unicode hex="0065"/>
  <outline>
    <contour>
      <point x="215" y="569" type="line"/>
      <point x="489" y="569" type="line"/>
      <point x="507" y="686" type="line"/>
      <point x="120" y="686" type="line"/>
      <point x="13" y="10" type="line"/>
      <point x="400" y="10" type="line"/>
      <point x="420" y="133" type="line"/>
      <point x="146" y="133" type="line"/>
      <point x="169" y="280" type="line"/>
      <point x="354" y="358" type="line"/>
      <point x="374" y="484" type="line"/>
      <point x="189" y="406" type="line"/>
    </contour>
  </outline>
</glyph>
<glyph name="f" format="2">
  <advance width="384"/>
  <unicode hex="0066"/>
  <outline>
    <contour>
      <point x="120" y="686" type="line"/>
      <point x="13" y="10" type="line"/>
      <point x="126" y="10" type="line"/>
      <point x="169" y="284" type="line"/>
      <point x="346" y="365" type="line"/>
      <point x="366" y="491" type="line"/>
      <point x="189" y="410" type="line"/>
      <point x="215" y="569" type="line"/>
      <point x="462" y="569" type="line"/>
      <point x="480" y="686" type="line"/>
    </contour>
  </outline>
</glyph>
<glyph name="h" format="2">
  <advance width="426"/>
  <unicode hex="0068"/>
  <outline>
    <contour>
      <point x="522" y="686" type="line"/>
      <point x="408" y="686" type="line"/>
      <point x="370" y="444" type="line"/>
      <point x="195" y="444" type="line"/>
      <point x="233" y="686" type="line"/>
      <point x="120" y="686" type="line"/>
      <point x="13" y="10" type="line"/>
      <point x="126" y="10" type="line"/>
      <point x="177" y="330" type="line"/>
      <point x="352" y="330" type="line"/>
      <point x="301" y="10" type="line"/>
      <point x="415" y="10" type="line"/>
    </contour>
  </outline>
</glyph>
<glyph name="k" format="2">
  <advance width="423"/>
  <unicode hex="006B"/>
  <outline>
    <contour>
      <point x="186" y="390" type="line"/>
      <point x="233" y="686" type="line"/>
      <point x="120" y="686" type="line"/>
      <point x="13" y="10" type="line"/>
      <point x="126" y="10" type="line"/>
      <point x="164" y="248" type="line"/>
      <point x="271" y="324" type="line"/>
      <point x="350" y="324" type="line"/>
      <point x="300" y="10" type="line"/>
      <point x="412" y="10" type="line"/>
      <point x="477" y="421" type="line"/>
      <point x="407" y="421" type="line"/>
      <point x="486" y="477" type="line"/>
      <point x="519" y="686" type="line"/>
      <point x="397" y="686" type="line"/>
      <point x="370" y="514" type="line"/>
    </contour>
  </outline>
</glyph>
<glyph name="m" format="2">
  <advance width="611"/>
  <unicode hex="006D"/>
  <outline>
    <contour>
      <point x="248" y="10" type="line"/>
      <point x="361" y="10" type="line"/>
      <point x="450" y="569" type="line"/>
      <point x="464" y="569" type="line"/>
      <point x="565" y="496" type="line"/>
      <point x="488" y="10" type="line"/>
      <point x="600" y="10" type="line"/>
      <point x="688" y="564" type="line"/>
      <point x="510" y="686" type="line"/>
      <point x="120" y="686" type="line"/>
      <point x="13" y="10" type="line"/>
      <point x="126" y="10" type="line"/>
      <point x="215" y="569" type="line"/>
      <point x="337" y="569" type="line"/>
    </contour>
  </outline>
</glyph>
<glyph name="o" format="2">
  <advance width="423"/>
  <unicode hex="006F"/>
  <outline>
    <contour>
      <point x="120" y="686" type="line"/>
      <point x="13" y="10" type="line"/>
      <point x="412" y="10" type="line"/>
      <point x="519" y="686" type="line"/>
    </contour>
    <contour>
      <point x="319" y="133" type="line"/>
      <point x="145" y="133" type="line"/>
      <point x="214" y="569" type="line"/>
      <point x="388" y="569" type="line"/>
    </contour>
  </outline>
</glyph>
<glyph name="r" format="2">
  <advance width="423"/>
  <unicode hex="0072"/>
  <outline>
    <contour>
      <point x="215" y="569" type="line"/>
      <point x="389" y="569" type="line"/>
      <point x="375" y="482" type="line"/>
      <point x="179" y="347" type="line"/>
    </contour>
    <contour>
      <point x="264" y="281" type="line"/>
      <point x="343" y="281" type="line"/>
      <point x="300" y="10" type="line"/>
      <point x="412" y="10" type="line"/>
      <point x="470" y="378" type="line"/>
      <point x="400" y="378" type="line"/>
      <point x="479" y="434" type="line"/>
      <point x="519" y="686" type="line"/>
      <point x="120" y="686" type="line"/>
      <point x="13" y="10" type="line"/>
      <point x="126" y="10" type="line"/>
      <point x="157" y="205" type="line"/>
    </contour>
  </outline>
</glyph>
<glyph name="w" format="2">
  <advance width="611"/>
  <unicode hex="0077"/>
  <outline>
    <contour>
      <point x="266" y="126" type="line"/>
      <point x="144" y="126" type="line"/>
      <point x="233" y="686" type="line"/>
      <point x="120" y="686" type="line"/>
      <point x="13" y="10" type="line"/>
      <point x="403" y="10" type="line"/>
      <point x="619" y="132" type="line"/>
      <point x="707" y="686" type="line"/>
      <point x="595" y="686" type="line"/>
      <point x="518" y="200" type="line"/>
      <point x="393" y="126" type="line"/>
      <point x="379" y="126" type="line"/>
      <point x="468" y="686" type="line"/>
      <point x="355" y="686" type="line"/>
    </contour>
  </outline>
</glyph>
<glyph name="y" format="2">
  <advance width="407"/>
  <unicode hex="0079"/>
  <outline>
    <contour>
      <point x="199" y="474" type="line"/>
      <point x="232" y="686" type="line"/>
      <point x="120" y="686" type="line"/>
      <point x="76" y="410" type="line"/>
      <point x="194" y="313" type="line"/>
      <point x="146" y="10" type="line"/>
      <point x="260" y="10" type="line"/>
      <point x="308" y="314" type="line"/>
      <point x="459" y="410" type="line"/>
      <point x="503" y="686" type="line"/>
      <point x="391" y="686" type="line"/>
      <point x="358" y="474" type="line"/>
      <point x="269" y="420" type="line"/>
    </contour>
  </outline>
</glyph>
<glyph name="braceleft" format="2">
  <advance width="273"/>
  <unicode hex="007B"/>
  <outline>
    <contour>
      <point x="63" y="270" type="line"/>
      <point x="133" y="219" type="line"/>
      <point x="68" y="-183" type="line"/>
      <point x="285" y="-183" type="line"/>
      <point x="304" y="-66" type="line"/>
      <point x="200" y="-66" type="line"/>
      <point x="256" y="287" type="line"/>
      <point x="165" y="350" type="line"/>
      <point x="273" y="393" type="line"/>
      <point x="328" y="736" type="line"/>
      <point x="427" y="736" type="line"/>
      <point x="445" y="852" type="line"/>
      <point x="235" y="852" type="line"/>
      <point x="171" y="468" type="line"/>
      <point x="89" y="434" type="line"/>
    </contour>
  </outline>
</glyph>
<glyph name="bar" format="2">
  <advance width="231"/>
  <unicode hex="007C"/>
  <outline>
    <contour>
      <point x="60" y="-79" type="line"/>
      <point x="140" y="-79" type="line"/>
      <point x="280" y="793" type="line"/>
      <point x="200" y="793" type="line"/>
    </contour>
  </outline>
</glyph>
<glyph name="braceright" format="2">
  <advance width="273"/>
  <unicode hex="007D"/>
  <outline>
    <contour>
      <point x="305" y="399" type="line"/>
      <point x="235" y="450" type="line"/>
      <point x="300" y="852" type="line"/>
      <point x="83" y="852" type="line"/>
      <point x="64" y="735" type="line"/>
      <point x="168" y="735" type="line"/>
      <point x="112" y="382" type="line"/>
      <point x="203" y="319" type="line"/>
      <point x="95" y="276" type="line"/>
      <point x="40" y="-67" type="line"/>
      <point x="-59" y="-67" type="line"/>
      <point x="-77" y="-183" type="line"/>
      <point x="133" y="-183" type="line"/>
      <point x="197" y="201" type="line"/>
      <point x="279" y="235" type="line"/>
    </contour>
  </outline>
</glyph>
<glyph name="asciitilde" format="2">
  <advance width="591"/>
  <unicode hex="007E"/>
  <outline>
    <contour>
      <point x="584" y="452" type="line"/>
      <point x="553" y="417"/>
      <point x="510" y="390"/>
      <point x="466" y="390" type="curve" smooth="yes"/>
      <point x="429" y="390"/>
      <point x="400" y="408"/>
      <point x="373" y="427" type="curve" smooth="yes"/>
      <point x="345" y="447"/>
      <point x="312" y="469" name=".hr01"/>
      <point x="261" y="469" type="curve" smooth="yes"/>
      <point x="189" y="469"/>
      <point x="122" y="428"/>
      <point x="73" y="365" type="curve"/>
      <point x="137" y="292" type="line"/>
      <point x="170" y="329"/>
      <point x="209" y="353"/>
      <point x="257" y="353" type="curve" smooth="yes"/>
      <point x="296" y="353"/>
      <point x="323" y="335"/>
      <point x="351" y="316" type="curve" smooth="yes"/>
      <point x="382" y="296"/>
      <point x="414" y="273" name=".hr02"/>
      <point x="469" y="273" type="curve" smooth="yes"/>
      <point x="541" y="273"/>
      <point x="605" y="315"/>
      <point x="650" y="379" type="curve"/>
    </contour>
  </outline>
</glyph>
<glyph name="exclamdown" format="2">
  <advance width="137"/>
  <unicode hex="00A1"/>
  <outline>
    <contour>
      <point x="209" y="532" type="line"/>
      <point x="96" y="532" type="line"/>
      <point x="13" y="10" type="line"/>
      <point x="126" y="10" type="line"/>
    </contour>
    <contour>
      <point x="120" y="686" type="line"/>
      <point x="103" y="575" type="line"/>
      <point x="216" y="575" type="line"/>
      <point x="233" y="686" type="line"/>
    </contour>
  </outline>
</glyph>
<glyph name="cent" format="2">
  <advance width="492"/>
  <unicode hex="00A2"/>
  <outline>
    <contour>
      <point x="262" y="287" type="line"/>
      <point x="185" y="287" type="line"/>
      <point x="210" y="452" type="line"/>
      <point x="288" y="452" type="line"/>
    </contour>
    <contour>
      <point x="285" y="-79" type="line"/>
      <point x="324" y="164" type="line"/>
      <point x="473" y="164" type="line"/>
      <point x="493" y="287" type="line"/>
      <point x="344" y="287" type="line"/>
      <point x="370" y="452" type="line"/>
      <point x="518" y="452" type="line"/>
      <point x="536" y="569" type="line"/>
      <point x="389" y="569" type="line"/>
      <point x="425" y="793" type="line"/>
      <point x="343" y="793" type="line"/>
      <point x="307" y="569" type="line"/>
      <point x="115" y="569" type="line"/>
      <point x="52" y="164" type="line"/>
      <point x="242" y="164" type="line"/>
      <point x="203" y="-79" type="line"/>
    </contour>
  </outline>
</glyph>
<glyph name="sterling" format="2">
  <advance width="534"/>
  <unicode hex="00A3"/>
  <outline>
    <contour>
      <point x="241" y="355" type="line"/>
      <point x="276" y="569" type="line"/>
      <point x="448" y="569" type="line"/>
      <point x="431" y="467" type="line"/>
      <point x="553" y="516" type="line"/>
      <point x="580" y="686" type="line"/>
      <point x="181" y="686" type="line"/>
      <point x="129" y="355" type="line"/>
      <point x="80" y="355" type="line"/>
      <point x="62" y="241" type="line"/>
      <point x="111" y="241" type="line"/>
      <point x="92" y="124" type="line"/>
      <point x="35" y="124" type="line"/>
      <point x="18" y="10" type="line"/>
      <point x="481" y="10" type="line"/>
      <point x="498" y="124" type="line"/>
      <point x="204" y="124" type="line"/>
      <point x="223" y="241" type="line"/>
      <point x="346" y="241" type="line"/>
      <point x="364" y="355" type="line"/>
    </contour>
  </outline>
</glyph>
<glyph name="yen" format="2">
  <advance width="407"/>
  <unicode hex="00A5"/>
  <outline>
    <contour>
      <point x="284" y="161" type="line"/>
      <point x="293" y="221" type="line"/>
      <point x="403" y="221" type="line"/>
      <point x="421" y="335" type="line"/>
      <point x="341" y="335" type="line"/>
      <point x="459" y="410" type="line"/>
      <point x="503" y="686" type="line" name=".hr01"/>
      <point x="391" y="686" type="line"/>
      <point x="358" y="474" type="line"/>
      <point x="269" y="420" type="line"/>
      <point x="199" y="474" type="line"/>
      <point x="232" y="686" type="line"/>
      <point x="120" y="686" type="line"/>
      <point x="76" y="410" type="line"/>
      <point x="167" y="335" type="line"/>
      <point x="81" y="335" type="line"/>
      <point x="63" y="221" type="line"/>
      <point x="179" y="221" type="line"/>
      <point x="170" y="161" type="line"/>
      <point x="54" y="161" type="line"/>
      <point x="36" y="47" type="line"/>
      <point x="152" y="47" type="line"/>
      <point x="146" y="10" type="line"/>
      <point x="260" y="10" type="line"/>
      <point x="266" y="47" type="line"/>
      <point x="376" y="47" type="line"/>
      <point x="394" y="161" type="line"/>
    </contour>
  </outline>
</glyph>
<glyph name="section" format="2">
  <advance width="497"/>
  <unicode hex="00A7"/>
  <outline>
    <contour>
      <point x="225" y="382" type="line"/>
      <point x="394" y="382" type="line"/>
      <point x="380" y="303" type="line"/>
      <point x="213" y="303" type="line"/>
    </contour>
    <contour>
      <point x="480" y="201" type="line"/>
      <point x="530" y="493" type="line"/>
      <point x="267" y="642" type="line"/>
      <point x="283" y="739" type="line"/>
      <point x="455" y="739" type="line"/>
      <point x="438" y="637" type="line"/>
      <point x="560" y="686" type="line"/>
      <point x="587" y="856" type="line"/>
      <point x="188" y="856" type="line"/>
      <point x="144" y="575" type="line"/>
      <point x="274" y="499" type="line"/>
      <point x="130" y="499" type="line"/>
      <point x="86" y="218" type="line"/>
      <point x="347" y="66" type="line"/>
      <point x="328" y="-54" type="line"/>
      <point x="155" y="-54" type="line"/>
      <point x="171" y="52" type="line"/>
      <point x="59" y="52" type="line"/>
      <point x="23" y="-177" type="line"/>
      <point x="422" y="-177" type="line"/>
      <point x="472" y="136" type="line"/>
      <point x="341" y="201" type="line"/>
    </contour>
  </outline>
</glyph>
<glyph name="dieresis" format="2">
  <advance width="833"/>
  <unicode hex="00A8"/>
  <outline>
    <contour>
      <point x="270" y="727" type="line"/>
      <point x="383" y="727" type="line"/>
      <point x="400" y="835" type="line"/>
      <point x="287" y="835" type="line"/>
    </contour>
    <contour>
      <point x="453" y="727" type="line"/>
      <point x="566" y="727" type="line"/>
      <point x="583" y="835" type="line"/>
      <point x="470" y="835" type="line"/>
    </contour>
  </outline>
</glyph>
<glyph name="copyright" format="2">
  <advance width="599"/>
  <unicode hex="00A9"/>
  <outline>
    <contour>
      <point x="114" y="430" type="curve" smooth="yes"/>
      <point x="114" y="294"/>
      <point x="225" y="183"/>
      <point x="361" y="183" type="curve" smooth="yes"/>
      <point x="497" y="183"/>
      <point x="608" y="294"/>
      <point x="608" y="430" type="curve" smooth="yes"/>
      <point x="608" y="566"/>
      <point x="497" y="677"/>
      <point x="361" y="677" type="curve" smooth="yes"/>
      <point x="225" y="677"/>
      <point x="114" y="566"/>
    </contour>
    <contour>
      <point x="178" y="430" type="curve" smooth="yes"/>
      <point x="178" y="531"/>
      <point x="260" y="613"/>
      <point x="361" y="613" type="curve" smooth="yes"/>
      <point x="462" y="613"/>
      <point x="544" y="531"/>
      <point x="544" y="430" type="curve" smooth="yes"/>
      <point x="544" y="329"/>
      <point x="462" y="247"/>
      <point x="361" y="247" type="curve" smooth="yes"/>
      <point x="260" y="247"/>
      <point x="178" y="329"/>
    </contour>
    <contour>
      <point x="298" y="549" type="line"/>
      <point x="260" y="328" type="line"/>
      <point x="413" y="328" type="line"/>
      <point x="425" y="394" type="line"/>
      <point x="336" y="394" type="line"/>
      <point x="343" y="430"/>
      <point x="345" y="452"/>
      <point x="352" y="484" type="curve"/>
      <point x="440" y="484" type="line"/>
      <point x="451" y="549" type="line"/>
    </contour>
  </outline>
</glyph>
<glyph name="ordfeminine" format="2">
  <advance width="221"/>
  <unicode hex="00AA"/>
  <outline>
    <contour>
      <point x="176" y="623" type="line"/>
      <point x="201" y="623" type="line"/>
      <point x="244" y="592" type="line"/>
      <point x="234" y="529" type="line"/>
      <point x="160" y="529" type="line"/>
    </contour>
    <contour>
      <point x="259" y="387" type="line"/>
      <point x="296" y="622" type="line"/>
      <point x="221" y="673" type="line"/>
      <point x="136" y="673" type="line"/>
      <point x="90" y="387" type="line"/>
      <point x="138" y="387" type="line"/>
      <point x="153" y="481" type="line"/>
      <point x="226" y="481" type="line"/>
      <point x="211" y="387" type="line"/>
    </contour>
  </outline>
</glyph>
<glyph name="registered" format="2">
  <advance width="450"/>
  <unicode hex="00AE"/>
  <outline>
    <contour>
      <point x="104" y="485" type="curve" smooth="yes"/>
      <point x="104" y="376"/>
      <point x="193" y="287"/>
      <point x="301" y="287" type="curve" smooth="yes"/>
      <point x="409" y="287"/>
      <point x="498" y="376"/>
      <point x="498" y="485" type="curve" smooth="yes"/>
      <point x="498" y="594"/>
      <point x="409" y="685"/>
      <point x="301" y="685" type="curve" smooth="yes"/>
      <point x="193" y="685"/>
      <point x="104" y="594"/>
    </contour>
    <contour>
      <point x="143" y="486" type="curve" smooth="yes"/>
      <point x="143" y="573"/>
      <point x="214" y="644"/>
      <point x="301" y="644" type="curve" smooth="yes"/>
      <point x="388" y="644"/>
      <point x="459" y="573"/>
      <point x="459" y="486" type="curve" smooth="yes"/>
      <point x="459" y="399"/>
      <point x="388" y="328"/>
      <point x="301" y="328" type="curve" smooth="yes"/>
      <point x="214" y="328"/>
      <point x="143" y="399"/>
    </contour>
    <contour>
      <point x="261" y="439" type="line"/>
      <point x="296" y="464" type="line"/>
      <point x="321" y="464" type="line"/>
      <point x="307" y="375" type="line"/>
      <point x="343" y="375" type="line"/>
      <point x="362" y="496" type="line"/>
      <point x="340" y="496" type="line"/>
      <point x="366" y="514" type="line"/>
      <point x="378" y="597" type="line"/>
      <point x="249" y="597" type="line"/>
      <point x="213" y="375" type="line"/>
      <point x="251" y="375" type="line"/>
    </contour>
    <contour>
      <point x="268" y="485" type="line"/>
      <point x="279" y="559" type="line"/>
      <point x="336" y="559" type="line"/>
      <point x="332" y="530" type="line"/>
    </contour>
  </outline>
</glyph>
<glyph name="degree" format="2">
  <advance width="346"/>
  <unicode hex="00B0"/>
  <outline>
    <contour>
      <point x="106" y="543" type="curve" smooth="yes"/>
      <point x="106" y="459"/>
      <point x="174" y="391"/>
      <point x="258" y="391" type="curve" smooth="yes"/>
      <point x="342" y="391"/>
      <point x="411" y="459"/>
      <point x="411" y="543" type="curve" smooth="yes"/>
      <point x="411" y="627"/>
      <point x="342" y="696"/>
      <point x="258" y="696" type="curve" smooth="yes"/>
      <point x="174" y="696"/>
      <point x="106" y="627"/>
    </contour>
    <contour>
      <point x="172" y="543" type="curve" smooth="yes"/>
      <point x="172" y="591"/>
      <point x="210" y="630"/>
      <point x="258" y="630" type="curve" smooth="yes"/>
      <point x="306" y="630"/>
      <point x="345" y="591"/>
      <point x="345" y="543" type="curve" smooth="yes"/>
      <point x="345" y="495"/>
      <point x="306" y="457"/>
      <point x="258" y="457" type="curve" smooth="yes"/>
      <point x="210" y="457"/>
      <point x="172" y="495"/>
    </contour>
  </outline>
</glyph>
<glyph name="acute" format="2">
  <advance width="343"/>
  <unicode hex="00B4"/>
  <outline>
    <contour>
      <point x="435" y="833" type="line"/>
      <point x="320" y="833" type="line"/>
      <point x="247" y="726" type="line"/>
      <point x="362" y="726" type="line"/>
    </contour>
  </outline>
</glyph>
<glyph name="paragraph" format="2">
  <advance width="728"/>
  <unicode hex="00B6"/>
  <outline>
    <contour>
      <point x="82" y="346" type="line"/>
      <point x="308" y="346" type="line"/>
      <point x="222" y="-203" type="line"/>
      <point x="335" y="-203" type="line"/>
      <point x="457" y="572" type="line"/>
      <point x="584" y="572" type="line"/>
      <point x="462" y="-203" type="line"/>
      <point x="575" y="-203" type="line"/>
      <point x="697" y="572" type="line"/>
      <point x="788" y="572" type="line"/>
      <point x="806" y="686" type="line"/>
      <point x="138" y="686" type="line"/>
    </contour>
  </outline>
</glyph>
<glyph name="ordmasculine" format="2">
  <advance width="229"/>
  <unicode hex="00BA"/>
  <outline>
    <contour>
      <point x="127" y="673" type="line"/>
      <point x="81" y="387" type="line"/>
      <point x="250" y="387" type="line"/>
      <point x="295" y="673" type="line"/>
    </contour>
    <contour>
      <point x="211" y="439" type="line"/>
      <point x="137" y="439" type="line"/>
      <point x="166" y="623" type="line"/>
      <point x="240" y="623" type="line"/>
    </contour>
  </outline>
</glyph>
<glyph name="questiondown" format="2">
  <advance width="500"/>
  <unicode hex="00BF"/>
  <outline>
    <contour>
      <point x="538" y="525" type="line"/>
      <point x="425" y="525" type="line"/>
      <point x="417" y="473" type="line"/>
      <point x="89" y="215" type="line"/>
      <point x="57" y="10" type="line"/>
      <point x="456" y="10" type="line"/>
      <point x="481" y="169" type="line"/>
      <point x="368" y="169" type="line"/>
      <point x="361" y="127" type="line"/>
      <point x="187" y="127" type="line"/>
      <point x="195" y="173" type="line"/>
      <point x="525" y="427" type="line"/>
    </contour>
    <contour>
      <point x="448" y="686" type="line"/>
      <point x="429" y="564" type="line"/>
      <point x="544" y="564" type="line"/>
      <point x="563" y="686" type="line"/>
    </contour>
  </outline>
</glyph>
<glyph name="Acircumflex" format="2">
  <advance width="422"/>
  <unicode hex="00C2"/>
  <outline>
    <contour>
      <point x="215" y="569" type="line"/>
      <point x="275" y="569" type="line"/>
      <point x="376" y="496" type="line"/>
      <point x="352" y="345" type="line"/>
      <point x="179" y="345" type="line"/>
    </contour>
    <contour>
      <point x="411" y="10" type="line"/>
      <point x="499" y="564" type="line"/>
      <point x="321" y="686" type="line"/>
      <point x="120" y="686" type="line"/>
      <point x="13" y="10" type="line"/>
      <point x="126" y="10" type="line"/>
      <point x="161" y="232" type="line"/>
      <point x="334" y="232" type="line"/>
      <point x="299" y="10" type="line"/>
    </contour>
    <contour>
      <point x="239" y="833" type="line"/>
      <point x="164" y="728" type="line"/>
      <point x="274" y="728" type="line"/>
      <point x="316" y="788" type="line"/>
      <point x="357" y="726" type="line"/>
      <point x="472" y="726" type="line"/>
      <point x="399" y="833" type="line"/>
    </contour>
  </outline>
</glyph>
<glyph name="AE" format="2">
  <advance width="709"/>
  <unicode hex="00C6"/>
  <outline>
    <contour>
      <point x="215" y="569" type="line"/>
      <point x="275" y="569" type="line"/>
      <point x="376" y="496" type="line"/>
      <point x="352" y="345" type="line"/>
      <point x="179" y="345" type="line"/>
    </contour>
    <contour>
      <point x="777" y="569" type="line"/>
      <point x="795" y="686" type="line"/>
      <point x="408" y="686" type="line"/>
      <point x="399" y="632" type="line"/>
      <point x="321" y="686" type="line"/>
      <point x="120" y="686" type="line"/>
      <point x="13" y="10" type="line"/>
      <point x="126" y="10" type="line"/>
      <point x="161" y="232" type="line"/>
      <point x="334" y="232" type="line"/>
      <point x="299" y="10" type="line"/>
      <point x="688" y="10" type="line"/>
      <point x="708" y="133" type="line"/>
      <point x="434" y="133" type="line"/>
      <point x="457" y="280" type="line"/>
      <point x="642" y="358" type="line"/>
      <point x="662" y="484" type="line"/>
      <point x="477" y="406" type="line"/>
      <point x="503" y="569" type="line"/>
    </contour>
  </outline>
</glyph>
<glyph name="Eacute" format="2">
  <advance width="411"/>
  <unicode hex="00C9"/>
  <outline>
    <contour>
      <point x="215" y="569" type="line"/>
      <point x="489" y="569" type="line"/>
      <point x="507" y="686" type="line"/>
      <point x="120" y="686" type="line"/>
      <point x="13" y="10" type="line"/>
      <point x="400" y="10" type="line"/>
      <point x="420" y="133" type="line"/>
      <point x="146" y="133" type="line"/>
      <point x="169" y="280" type="line"/>
      <point x="354" y="358" type="line"/>
      <point x="374" y="484" type="line"/>
      <point x="189" y="406" type="line"/>
    </contour>
    <contour>
      <point x="438" y="833" type="line"/>
      <point x="323" y="833" type="line"/>
      <point x="250" y="726" type="line"/>
      <point x="365" y="726" type="line"/>
    </contour>
  </outline>
</glyph>
<glyph name="Igrave" format="2">
  <advance width="137"/>
  <unicode hex="00CC"/>
  <outline>
    <contour>
      <point x="13" y="10" type="line"/>
      <point x="126" y="10" type="line"/>
      <point x="233" y="686" type="line"/>
      <point x="120" y="686" type="line"/>
    </contour>
    <contour>
      <point x="155" y="726" type="line"/>
      <point x="270" y="726" type="line"/>
      <point x="197" y="833" type="line"/>
      <point x="82" y="833" type="line"/>
    </contour>
  </outline>
</glyph>
<glyph name="Iacute" format="2">
  <advance width="137"/>
  <unicode hex="00CD"/>
  <outline>
    <contour>
      <point x="13" y="10" type="line"/>
      <point x="126" y="10" type="line"/>
      <point x="233" y="686" type="line"/>
      <point x="120" y="686" type="line"/>
    </contour>
    <contour>
      <point x="304" y="833" type="line"/>
      <point x="189" y="833" type="line"/>
      <point x="116" y="726" type="line"/>
      <point x="231" y="726" type="line"/>
    </contour>
  </outline>
</glyph>
<glyph name="Idieresis" format="2">
  <advance width="137"/>
  <unicode hex="00CF"/>
  <outline>
    <contour>
      <point x="13" y="10" type="line"/>
      <point x="126" y="10" type="line"/>
      <point x="233" y="686" type="line"/>
      <point x="120" y="686" type="line"/>
    </contour>
    <contour>
      <point x="48" y="727" type="line"/>
      <point x="161" y="727" type="line"/>
      <point x="178" y="835" type="line"/>
      <point x="65" y="835" type="line"/>
    </contour>
    <contour>
      <point x="231" y="727" type="line"/>
      <point x="344" y="727" type="line"/>
      <point x="361" y="835" type="line"/>
      <point x="248" y="835" type="line"/>
    </contour>
  </outline>
</glyph>
<glyph name="Ograve" format="2">
  <advance width="423"/>
  <unicode hex="00D2"/>
  <outline>
    <contour>
      <point x="120" y="686" type="line"/>
      <point x="13" y="10" type="line"/>
      <point x="412" y="10" type="line"/>
      <point x="519" y="686" type="line"/>
    </contour>
    <contour>
      <point x="319" y="133" type="line"/>
      <point x="145" y="133" type="line"/>
      <point x="214" y="569" type="line"/>
      <point x="388" y="569" type="line"/>
    </contour>
    <contour>
      <point x="282" y="726" type="line"/>
      <point x="397" y="726" type="line"/>
      <point x="324" y="833" type="line"/>
      <point x="209" y="833" type="line"/>
    </contour>
  </outline>
</glyph>
<glyph name="Ocircumflex" format="2">
  <advance width="423"/>
  <unicode hex="00D4"/>
  <outline>
    <contour>
      <point x="145" y="133" type="line"/>
      <point x="214" y="569" type="line"/>
      <point x="388" y="569" type="line"/>
      <point x="319" y="133" type="line"/>
    </contour>
    <contour>
      <point x="13" y="10" type="line"/>
      <point x="412" y="10" type="line"/>
      <point x="519" y="686" type="line"/>
      <point x="120" y="686" type="line"/>
    </contour>
    <contour>
      <point x="252" y="833" type="line"/>
      <point x="177" y="728" type="line"/>
      <point x="287" y="728" type="line"/>
      <point x="329" y="788" type="line"/>
      <point x="370" y="726" type="line"/>
      <point x="485" y="726" type="line"/>
      <point x="412" y="833" type="line"/>
    </contour>
  </outline>
</glyph>
<glyph name="Otilde" format="2">
  <advance width="423"/>
  <unicode hex="00D5"/>
  <outline>
    <contour>
      <point x="438" y="876" type="line"/>
      <point x="421" y="849"/>
      <point x="397" y="831"/>
      <point x="368" y="831" type="curve" smooth="yes"/>
      <point x="328" y="831"/>
      <point x="310" y="877" name=".hr01"/>
      <point x="246" y="877" type="curve" smooth="yes"/>
      <point x="195" y="877"/>
      <point x="147" y="845"/>
      <point x="115" y="798" type="curve"/>
      <point x="174" y="733" type="line"/>
      <point x="191" y="757"/>
      <point x="216" y="777"/>
      <point x="244" y="777" type="curve" smooth="yes"/>
      <point x="286" y="777"/>
      <point x="303" y="730" name=".hr02"/>
      <point x="370" y="730" type="curve" smooth="yes"/>
      <point x="421" y="730"/>
      <point x="467" y="763"/>
      <point x="498" y="810" type="curve"/>
    </contour>
    <contour>
      <point x="120" y="686" type="line"/>
      <point x="13" y="10" type="line"/>
      <point x="412" y="10" type="line"/>
      <point x="519" y="686" type="line"/>
    </contour>
    <contour>
      <point x="319" y="133" type="line"/>
      <point x="145" y="133" type="line"/>
      <point x="214" y="569" type="line"/>
      <point x="388" y="569" type="line"/>
    </contour>
  </outline>
</glyph>
<glyph name="multiply" format="2">
  <advance width="451"/>
  <unicode hex="00D7"/>
  <outline>
    <contour>
      <point x="177" y="349" type="line"/>
      <point x="87" y="270" type="line"/>
      <point x="163" y="181" type="line"/>
      <point x="269" y="271" type="line"/>
      <point x="374" y="181" type="line"/>
      <point x="450" y="270" type="line"/>
      <point x="360" y="349" type="line"/>
      <point x="450" y="426" type="line"/>
      <point x="374" y="523" type="line"/>
      <point x="269" y="430" type="line"/>
      <point x="163" y="523" type="line"/>
      <point x="87" y="426" type="line"/>
    </contour>
  </outline>
</glyph>
<glyph name="Oslash" format="2">
  <advance width="423"/>
  <unicode hex="00D8"/>
  <outline>
    <contour>
      <point x="152" y="133" type="line"/>
      <point x="145" y="133" type="line"/>
      <point x="214" y="569" type="line"/>
      <point x="309" y="569" type="line"/>
    </contour>
    <contour>
      <point x="379" y="569" type="line"/>
      <point x="388" y="569" type="line"/>
      <point x="319" y="133" type="line"/>
      <point x="222" y="133" type="line"/>
    </contour>
    <contour>
      <point x="145" y="-81" type="line"/>
      <point x="178" y="10" type="line"/>
      <point x="412" y="10" type="line"/>
      <point x="519" y="686" type="line"/>
      <point x="421" y="686" type="line"/>
      <point x="455" y="779" type="line"/>
      <point x="385" y="779" type="line"/>
      <point x="351" y="686" type="line"/>
      <point x="120" y="686" type="line"/>
      <point x="13" y="10" type="line"/>
      <point x="108" y="10" type="line"/>
      <point x="75" y="-81" type="line"/>
    </contour>
  </outline>
</glyph>
<glyph name="Uacute" format="2">
  <advance width="423"/>
  <unicode hex="00DA"/>
  <outline>
    <contour>
      <point x="319" y="133" type="line"/>
      <point x="145" y="133" type="line"/>
      <point x="232" y="686" type="line"/>
      <point x="120" y="686" type="line"/>
      <point x="13" y="10" type="line"/>
      <point x="412" y="10" type="line"/>
      <point x="519" y="686" type="line"/>
      <point x="406" y="686" type="line"/>
    </contour>
    <contour>
      <point x="458" y="833" type="line"/>
      <point x="343" y="833" type="line"/>
      <point x="270" y="726" type="line"/>
      <point x="385" y="726" type="line"/>
    </contour>
  </outline>
</glyph>
<glyph name="Udieresis" format="2">
  <advance width="423"/>
  <unicode hex="00DC"/>
  <outline>
    <contour>
      <point x="319" y="133" type="line"/>
      <point x="145" y="133" type="line"/>
      <point x="232" y="686" type="line"/>
      <point x="120" y="686" type="line"/>
      <point x="13" y="10" type="line"/>
      <point x="412" y="10" type="line"/>
      <point x="519" y="686" type="line"/>
      <point x="406" y="686" type="line"/>
    </contour>
    <contour>
      <point x="169" y="727" type="line"/>
      <point x="282" y="727" type="line"/>
      <point x="299" y="835" type="line"/>
      <point x="186" y="835" type="line"/>
    </contour>
    <contour>
      <point x="352" y="727" type="line"/>
      <point x="465" y="727" type="line"/>
      <point x="482" y="835" type="line"/>
      <point x="369" y="835" type="line"/>
    </contour>
  </outline>
</glyph>
<glyph name="germandbls" format="2">
  <advance width="486"/>
  <unicode hex="00DF"/>
  <outline>
    <contour>
      <point x="14" y="10" type="line"/>
      <point x="126" y="10" type="line"/>
      <point x="198" y="495" type="line"/>
      <point x="323" y="569" type="line"/>
      <point x="439" y="569" type="line"/>
      <point x="431" y="523" type="line"/>
      <point x="229" y="396" type="line"/>
      <point x="207" y="255" type="line"/>
      <point x="321" y="328" type="line"/>
      <point x="400" y="328" type="line"/>
      <point x="379" y="192" type="line"/>
      <point x="283" y="133" type="line"/>
      <point x="197" y="133" type="line"/>
      <point x="178" y="10" type="line"/>
      <point x="307" y="10" type="line"/>
      <point x="478" y="113" type="line"/>
      <point x="528" y="425" type="line"/>
      <point x="458" y="425" type="line"/>
      <point x="537" y="481" type="line"/>
      <point x="569" y="685" type="line"/>
      <point x="313" y="685" type="line"/>
      <point x="97" y="563" type="line"/>
    </contour>
  </outline>
</glyph>
<glyph name="agrave" format="2">
  <advance width="422"/>
  <unicode hex="00E0"/>
  <outline>
    <contour>
      <point x="215" y="569" type="line"/>
      <point x="275" y="569" type="line"/>
      <point x="376" y="496" type="line"/>
      <point x="352" y="345" type="line"/>
      <point x="179" y="345" type="line"/>
    </contour>
    <contour>
      <point x="411" y="10" type="line"/>
      <point x="499" y="564" type="line"/>
      <point x="321" y="686" type="line"/>
      <point x="120" y="686" type="line"/>
      <point x="13" y="10" type="line"/>
      <point x="126" y="10" type="line"/>
      <point x="161" y="232" type="line"/>
      <point x="334" y="232" type="line"/>
      <point x="299" y="10" type="line"/>
    </contour>
    <contour>
      <point x="381" y="726" type="line"/>
      <point x="308" y="833" type="line"/>
      <point x="193" y="833" type="line"/>
      <point x="266" y="726" type="line"/>
    </contour>
  </outline>
</glyph>
<glyph name="aacute" format="2">
  <advance width="422"/>
  <unicode hex="00E1"/>
  <outline>
    <contour>
      <point x="215" y="569" type="line"/>
      <point x="275" y="569" type="line"/>
      <point x="376" y="496" type="line"/>
      <point x="352" y="345" type="line"/>
      <point x="179" y="345" type="line"/>
    </contour>
    <contour>
      <point x="411" y="10" type="line"/>
      <point x="499" y="564" type="line"/>
      <point x="321" y="686" type="line"/>
      <point x="120" y="686" type="line"/>
      <point x="13" y="10" type="line"/>
      <point x="126" y="10" type="line"/>
      <point x="161" y="232" type="line"/>
      <point x="334" y="232" type="line"/>
      <point x="299" y="10" type="line"/>
    </contour>
    <contour>
      <point x="315" y="833" type="line"/>
      <point x="242" y="726" type="line"/>
      <point x="357" y="726" type="line"/>
      <point x="430" y="833" type="line"/>
    </contour>
  </outline>
</glyph>
<glyph name="atilde" format="2">
  <advance width="422"/>
  <unicode hex="00E3"/>
  <outline>
    <contour>
      <point x="448" y="876" type="line"/>
      <point x="431" y="849"/>
      <point x="407" y="831"/>
      <point x="378" y="831" type="curve" smooth="yes"/>
      <point x="338" y="831"/>
      <point x="320" y="877" name=".hr01"/>
      <point x="256" y="877" type="curve" smooth="yes"/>
      <point x="205" y="877"/>
      <point x="157" y="845"/>
      <point x="125" y="798" type="curve"/>
      <point x="184" y="733" type="line"/>
      <point x="201" y="757"/>
      <point x="226" y="777"/>
      <point x="254" y="777" type="curve" smooth="yes"/>
      <point x="296" y="777"/>
      <point x="313" y="730" name=".hr02"/>
      <point x="380" y="730" type="curve" smooth="yes"/>
      <point x="431" y="730"/>
      <point x="477" y="763"/>
      <point x="508" y="810" type="curve"/>
    </contour>
    <contour>
      <point x="299" y="10" type="line"/>
      <point x="411" y="10" type="line"/>
      <point x="499" y="564" type="line"/>
      <point x="321" y="686" type="line"/>
      <point x="120" y="686" type="line"/>
      <point x="13" y="10" type="line"/>
      <point x="126" y="10" type="line"/>
      <point x="161" y="232" type="line"/>
      <point x="334" y="232" type="line"/>
    </contour>
    <contour>
      <point x="179" y="345" type="line"/>
      <point x="215" y="569" type="line"/>
      <point x="275" y="569" type="line"/>
      <point x="376" y="496" type="line"/>
      <point x="352" y="345" type="line"/>
    </contour>
  </outline>
</glyph>
<glyph name="adieresis" format="2">
  <advance width="422"/>
  <unicode hex="00E4"/>
  <outline>
    <contour>
      <point x="215" y="569" type="line"/>
      <point x="275" y="569" type="line"/>
      <point x="376" y="496" type="line"/>
      <point x="352" y="345" type="line"/>
      <point x="179" y="345" type="line"/>
    </contour>
    <contour>
      <point x="411" y="10" type="line"/>
      <point x="499" y="564" type="line"/>
      <point x="321" y="686" type="line"/>
      <point x="120" y="686" type="line"/>
      <point x="13" y="10" type="line"/>
      <point x="126" y="10" type="line"/>
      <point x="161" y="232" type="line"/>
      <point x="334" y="232" type="line"/>
      <point x="299" y="10" type="line"/>
    </contour>
    <contour>
      <point x="285" y="727" type="line"/>
      <point x="302" y="835" type="line"/>
      <point x="189" y="835" type="line"/>
      <point x="172" y="727" type="line"/>
    </contour>
    <contour>
      <point x="468" y="727" type="line"/>
      <point x="485" y="835" type="line"/>
      <point x="372" y="835" type="line"/>
      <point x="355" y="727" type="line"/>
    </contour>
  </outline>
</glyph>
<glyph name="aring" format="2">
  <advance width="422"/>
  <unicode hex="00E5"/>
  <outline>
    <contour>
      <point x="212" y="826" type="curve" smooth="yes"/>
      <point x="212" y="770"/>
      <point x="255" y="725"/>
      <point x="312" y="725" type="curve" smooth="yes"/>
      <point x="367" y="725"/>
      <point x="412" y="770"/>
      <point x="412" y="826" type="curve" smooth="yes"/>
      <point x="412" y="882"/>
      <point x="367" y="928"/>
      <point x="312" y="928" type="curve" smooth="yes"/>
      <point x="255" y="928"/>
      <point x="212" y="882"/>
    </contour>
    <contour>
      <point x="275" y="826" type="curve" smooth="yes"/>
      <point x="275" y="846"/>
      <point x="291" y="861"/>
      <point x="310" y="861" type="curve" smooth="yes"/>
      <point x="331" y="861"/>
      <point x="346" y="846"/>
      <point x="346" y="826" type="curve" smooth="yes"/>
      <point x="346" y="806"/>
      <point x="331" y="791"/>
      <point x="310" y="791" type="curve" smooth="yes"/>
      <point x="291" y="791"/>
      <point x="275" y="806"/>
    </contour>
    <contour>
      <point x="299" y="10" type="line"/>
      <point x="411" y="10" type="line"/>
      <point x="499" y="564" type="line"/>
      <point x="321" y="686" type="line"/>
      <point x="120" y="686" type="line"/>
      <point x="13" y="10" type="line"/>
      <point x="126" y="10" type="line"/>
      <point x="161" y="232" type="line"/>
      <point x="334" y="232" type="line"/>
    </contour>
    <contour>
      <point x="179" y="345" type="line"/>
      <point x="215" y="569" type="line"/>
      <point x="275" y="569" type="line"/>
      <point x="376" y="496" type="line"/>
      <point x="352" y="345" type="line"/>
    </contour>
  </outline>
</glyph>
<glyph name="ccedilla" format="2">
  <advance width="423"/>
  <unicode hex="00E7"/>
  <outline>
    <contour>
      <point x="222" y="10" type="line"/>
      <point x="412" y="10" type="line"/>
      <point x="432" y="133" type="line"/>
      <point x="146" y="133" type="line"/>
      <point x="215" y="569" type="line"/>
      <point x="501" y="569" type="line"/>
      <point x="519" y="686" type="line"/>
      <point x="120" y="686" type="line"/>
      <point x="13" y="10" type="line"/>
      <point x="115" y="10" type="line"/>
      <point x="91" y="-119" type="line"/>
      <point x="248" y="-198" type="line"/>
      <point x="77" y="-198" type="line"/>
      <point x="59" y="-301" type="line"/>
      <point x="338" y="-301" type="line"/>
      <point x="365" y="-140" type="line"/>
      <point x="207" y="-63" type="line"/>
    </contour>
  </outline>
</glyph>
<glyph name="egrave" format="2">
  <advance width="411"/>
  <unicode hex="00E8"/>
  <outline>
    <contour>
      <point x="215" y="569" type="line"/>
      <point x="489" y="569" type="line"/>
      <point x="507" y="686" type="line"/>
      <point x="120" y="686" type="line"/>
      <point x="13" y="10" type="line"/>
      <point x="400" y="10" type="line"/>
      <point x="420" y="133" type="line"/>
      <point x="146" y="133" type="line"/>
      <point x="169" y="280" type="line"/>
      <point x="354" y="358" type="line"/>
      <point x="374" y="484" type="line"/>
      <point x="189" y="406" type="line"/>
    </contour>
    <contour>
      <point x="282" y="726" type="line"/>
      <point x="397" y="726" type="line"/>
      <point x="324" y="833" type="line"/>
      <point x="209" y="833" type="line"/>
    </contour>
  </outline>
</glyph>
<glyph name="ecircumflex" format="2">
  <advance width="411"/>
  <unicode hex="00EA"/>
  <outline>
    <contour>
      <point x="215" y="569" type="line"/>
      <point x="489" y="569" type="line"/>
      <point x="507" y="686" type="line"/>
      <point x="120" y="686" type="line"/>
      <point x="13" y="10" type="line"/>
      <point x="400" y="10" type="line"/>
      <point x="420" y="133" type="line"/>
      <point x="146" y="133" type="line"/>
      <point x="169" y="280" type="line"/>
      <point x="354" y="358" type="line"/>
      <point x="374" y="484" type="line"/>
      <point x="189" y="406" type="line"/>
    </contour>
    <contour>
      <point x="392" y="833" type="line"/>
      <point x="232" y="833" type="line"/>
      <point x="157" y="728" type="line"/>
      <point x="267" y="728" type="line"/>
      <point x="309" y="788" type="line"/>
      <point x="350" y="726" type="line"/>
      <point x="465" y="726" type="line"/>
    </contour>
  </outline>
</glyph>
<glyph name="edieresis" format="2">
  <advance width="411"/>
  <unicode hex="00EB"/>
  <outline>
    <contour>
      <point x="215" y="569" type="line"/>
      <point x="489" y="569" type="line"/>
      <point x="507" y="686" type="line"/>
      <point x="120" y="686" type="line"/>
      <point x="13" y="10" type="line"/>
      <point x="400" y="10" type="line"/>
      <point x="420" y="133" type="line"/>
      <point x="146" y="133" type="line"/>
      <point x="169" y="280" type="line"/>
      <point x="354" y="358" type="line"/>
      <point x="374" y="484" type="line"/>
      <point x="189" y="406" type="line"/>
    </contour>
    <contour>
      <point x="156" y="727" type="line"/>
      <point x="269" y="727" type="line"/>
      <point x="286" y="835" type="line"/>
      <point x="173" y="835" type="line"/>
    </contour>
    <contour>
      <point x="339" y="727" type="line"/>
      <point x="452" y="727" type="line"/>
      <point x="469" y="835" type="line"/>
      <point x="356" y="835" type="line"/>
    </contour>
  </outline>
</glyph>
<glyph name="icircumflex" format="2">
  <advance width="137"/>
  <unicode hex="00EE"/>
  <outline>
    <contour>
      <point x="13" y="10" type="line"/>
      <point x="126" y="10" type="line"/>
      <point x="233" y="686" type="line"/>
      <point x="120" y="686" type="line"/>
    </contour>
    <contour>
      <point x="266" y="833" type="line"/>
      <point x="106" y="833" type="line"/>
      <point x="31" y="728" type="line"/>
      <point x="141" y="728" type="line"/>
      <point x="183" y="788" type="line"/>
      <point x="224" y="726" type="line"/>
      <point x="339" y="726" type="line"/>
    </contour>
  </outline>
</glyph>
<glyph name="ntilde" format="2">
  <advance width="422"/>
  <unicode hex="00F1"/>
  <outline>
    <contour>
      <point x="430" y="876" type="line"/>
      <point x="413" y="849"/>
      <point x="389" y="831"/>
      <point x="360" y="831" type="curve" smooth="yes"/>
      <point x="320" y="831"/>
      <point x="302" y="877" name=".hr01"/>
      <point x="238" y="877" type="curve" smooth="yes"/>
      <point x="187" y="877"/>
      <point x="139" y="845"/>
      <point x="107" y="798" type="curve"/>
      <point x="166" y="733" type="line"/>
      <point x="183" y="757"/>
      <point x="208" y="777"/>
      <point x="236" y="777" type="curve" smooth="yes"/>
      <point x="278" y="777"/>
      <point x="295" y="730" name=".hr02"/>
      <point x="362" y="730" type="curve" smooth="yes"/>
      <point x="413" y="730"/>
      <point x="459" y="763"/>
      <point x="490" y="810" type="curve"/>
    </contour>
    <contour>
      <point x="275" y="569" type="line"/>
      <point x="376" y="495" type="line"/>
      <point x="299" y="10" type="line"/>
      <point x="411" y="10" type="line"/>
      <point x="499" y="563" type="line"/>
      <point x="321" y="686" type="line"/>
      <point x="120" y="686" type="line"/>
      <point x="13" y="10" type="line"/>
      <point x="126" y="10" type="line"/>
      <point x="215" y="569" type="line"/>
    </contour>
  </outline>
</glyph>
<glyph name="odieresis" format="2">
  <advance width="423"/>
  <unicode hex="00F6"/>
  <outline>
    <contour>
      <point x="120" y="686" type="line"/>
      <point x="13" y="10" type="line"/>
      <point x="412" y="10" type="line"/>
      <point x="519" y="686" type="line"/>
    </contour>
    <contour>
      <point x="319" y="133" type="line"/>
      <point x="145" y="133" type="line"/>
      <point x="214" y="569" type="line"/>
      <point x="388" y="569" type="line"/>
    </contour>
    <contour>
      <point x="164" y="727" type="line"/>
      <point x="277" y="727" type="line"/>
      <point x="294" y="835" type="line"/>
      <point x="181" y="835" type="line"/>
    </contour>
    <contour>
      <point x="347" y="727" type="line"/>
      <point x="460" y="727" type="line"/>
      <point x="477" y="835" type="line"/>
      <point x="364" y="835" type="line"/>
    </contour>
  </outline>
</glyph>
<glyph name="divide" format="2">
  <advance width="478"/>
  <unicode hex="00F7"/>
  <outline>
    <contour>
      <point x="497" y="427" type="line"/>
      <point x="104" y="427" type="line"/>
      <point x="86" y="313" type="line"/>
      <point x="479" y="313" type="line"/>
    </contour>
    <contour>
      <point x="245" y="538" type="line"/>
      <point x="358" y="538" type="line"/>
      <point x="376" y="652" type="line"/>
      <point x="263" y="652" type="line"/>
    </contour>
    <contour>
      <point x="171" y="69" type="line"/>
      <point x="284" y="69" type="line"/>
      <point x="301" y="177" type="line"/>
      <point x="188" y="177" type="line"/>
    </contour>
  </outline>
</glyph>
<glyph name="ugrave" format="2">
  <advance width="423"/>
  <unicode hex="00F9"/>
  <outline>
    <contour>
      <point x="319" y="133" type="line"/>
      <point x="145" y="133" type="line"/>
      <point x="232" y="686" type="line"/>
      <point x="120" y="686" type="line"/>
      <point x="13" y="10" type="line"/>
      <point x="412" y="10" type="line"/>
      <point x="519" y="686" type="line"/>
      <point x="406" y="686" type="line"/>
    </contour>
    <contour>
      <point x="294" y="726" type="line"/>
      <point x="409" y="726" type="line"/>
      <point x="336" y="833" type="line"/>
      <point x="221" y="833" type="line"/>
    </contour>
  </outline>
</glyph>
<glyph name="yacute" format="2">
  <advance width="407"/>
  <unicode hex="00FD"/>
  <outline>
    <contour>
      <point x="199" y="474" type="line"/>
      <point x="232" y="686" type="line"/>
      <point x="120" y="686" type="line"/>
      <point x="76" y="410" type="line"/>
      <point x="194" y="313" type="line"/>
      <point x="146" y="10" type="line"/>
      <point x="260" y="10" type="line"/>
      <point x="308" y="314" type="line"/>
      <point x="459" y="410" type="line"/>
      <point x="503" y="686" type="line"/>
      <point x="391" y="686" type="line"/>
      <point x="358" y="474" type="line"/>
      <point x="269" y="420" type="line"/>
    </contour>
    <contour>
      <point x="448" y="833" type="line"/>
      <point x="333" y="833" type="line"/>
      <point x="260" y="726" type="line"/>
      <point x="375" y="726" type="line"/>
    </contour>
  </outline>
</glyph>
<glyph name="thorn" format="2">
  <advance width="431"/>
  <unicode hex="00FE"/>
  <outline>
    <contour>
      <point x="159" y="240" type="line"/>
      <point x="198" y="481" type="line"/>
      <point x="372" y="481" type="line"/>
      <point x="333" y="240" type="line"/>
    </contour>
    <contour>
      <point x="245" y="793" type="line"/>
      <point x="136" y="793" type="line"/>
      <point x="-4" y="-79" type="line"/>
      <point x="105" y="-79" type="line"/>
      <point x="138" y="117" type="line"/>
      <point x="426" y="117" type="line"/>
      <point x="503" y="598" type="line"/>
      <point x="213" y="598" type="line"/>
    </contour>
  </outline>
</glyph>
<glyph name="ydieresis" format="2">
  <advance width="407"/>
  <unicode hex="00FF"/>
  <outline>
    <contour>
      <point x="199" y="474" type="line"/>
      <point x="232" y="686" type="line"/>
      <point x="120" y="686" type="line"/>
      <point x="76" y="410" type="line"/>
      <point x="194" y="313" type="line"/>
      <point x="146" y="10" type="line"/>
      <point x="260" y="10" type="line"/>
      <point x="308" y="314" type="line"/>
      <point x="459" y="410" type="line"/>
      <point x="503" y="686" type="line"/>
      <point x="391" y="686" type="line"/>
      <point x="358" y="474" type="line"/>
      <point x="269" y="420" type="line"/>
    </contour>
    <contour>
      <point x="151" y="727" type="line"/>
      <point x="264" y="727" type="line"/>
      <point x="281" y="835" type="line"/>
      <point x="168" y="835" type="line"/>
    </contour>
    <contour>
      <point x="334" y="727" type="line"/>
      <point x="447" y="727" type="line"/>
      <point x="464" y="835" type="line"/>
      <point x="351" y="835" type="line"/>
    </contour>
  </outline>
</glyph>
<glyph name="Amacron" format="2">
  <advance width="422"/>
  <unicode hex="0100"/>
  <outline>
    <contour>
      <point x="215" y="569" type="line"/>
      <point x="275" y="569" type="line"/>
      <point x="376" y="496" type="line"/>
      <point x="352" y="345" type="line"/>
      <point x="179" y="345" type="line"/>
    </contour>
    <contour>
      <point x="411" y="10" type="line"/>
      <point x="499" y="564" type="line"/>
      <point x="321" y="686" type="line"/>
      <point x="120" y="686" type="line"/>
      <point x="13" y="10" type="line"/>
      <point x="126" y="10" type="line"/>
      <point x="161" y="232" type="line"/>
      <point x="334" y="232" type="line"/>
      <point x="299" y="10" type="line"/>
    </contour>
    <contour>
      <point x="191" y="841" type="line"/>
      <point x="173" y="727" type="line"/>
      <point x="453" y="727" type="line"/>
      <point x="471" y="841" type="line"/>
    </contour>
  </outline>
</glyph>
<glyph name="abreve" format="2">
  <advance width="422"/>
  <unicode hex="0103"/>
  <outline>
    <contour>
      <point x="308" y="802" type="curve" smooth="yes"/>
      <point x="285" y="802"/>
      <point x="266" y="817"/>
      <point x="263" y="840" type="curve"/>
      <point x="170" y="840" type="line"/>
      <point x="173" y="767"/>
      <point x="232" y="711"/>
      <point x="308" y="711" type="curve" smooth="yes"/>
      <point x="384" y="711"/>
      <point x="443" y="767"/>
      <point x="448" y="840" type="curve"/>
      <point x="353" y="840" type="line"/>
      <point x="350" y="817"/>
      <point x="331" y="802"/>
    </contour>
    <contour>
      <point x="299" y="10" type="line"/>
      <point x="411" y="10" type="line"/>
      <point x="499" y="564" type="line"/>
      <point x="321" y="686" type="line"/>
      <point x="120" y="686" type="line"/>
      <point x="13" y="10" type="line"/>
      <point x="126" y="10" type="line"/>
      <point x="161" y="232" type="line"/>
      <point x="334" y="232" type="line"/>
    </contour>
    <contour>
      <point x="179" y="345" type="line"/>
      <point x="215" y="569" type="line"/>
      <point x="275" y="569" type="line"/>
      <point x="376" y="496" type="line"/>
      <point x="352" y="345" type="line"/>
    </contour>
  </outline>
</glyph>
<glyph name="aogonek" format="2">
  <advance width="422"/>
  <unicode hex="0105"/>
  <outline>
    <contour>
      <point x="215" y="569" type="line"/>
      <point x="275" y="569" type="line"/>
      <point x="376" y="496" type="line"/>
      <point x="352" y="345" type="line"/>
      <point x="179" y="345" type="line"/>
    </contour>
    <contour>
      <point x="402" y="10" type="line"/>
      <point x="411" y="10" type="line"/>
      <point x="499" y="564" type="line"/>
      <point x="321" y="686" type="line"/>
      <point x="120" y="686" type="line"/>
      <point x="13" y="10" type="line"/>
      <point x="126" y="10" type="line"/>
      <point x="161" y="232" type="line"/>
      <point x="334" y="232" type="line"/>
      <point x="299" y="10" type="line"/>
      <point x="298" y="10" type="line"/>
      <point x="282" y="-80" type="line"/>
      <point x="144" y="-80" type="line"/>
      <point x="106" y="-300" type="line"/>
      <point x="381" y="-300" type="line"/>
      <point x="398" y="-201" type="line"/>
      <point x="222" y="-201" type="line"/>
      <point x="225" y="-169" type="line"/>
      <point x="365" y="-169" type="line"/>
    </contour>
  </outline>
</glyph>
<glyph name="cacute" format="2">
  <advance width="423"/>
  <unicode hex="0107"/>
  <outline>
    <contour>
      <point x="120" y="686" type="line"/>
      <point x="13" y="10" type="line"/>
      <point x="412" y="10" type="line"/>
      <point x="432" y="133" type="line"/>
      <point x="146" y="133" type="line"/>
      <point x="215" y="569" type="line"/>
      <point x="501" y="569" type="line"/>
      <point x="519" y="686" type="line"/>
    </contour>
    <contour>
      <point x="430" y="833" type="line"/>
      <point x="315" y="833" type="line"/>
      <point x="242" y="726" type="line"/>
      <point x="357" y="726" type="line"/>
    </contour>
  </outline>
</glyph>
<glyph name="cdotaccent" format="2">
  <advance width="423"/>
  <unicode hex="010B"/>
  <outline>
    <contour>
      <point x="120" y="686" type="line"/>
      <point x="13" y="10" type="line"/>
      <point x="412" y="10" type="line"/>
      <point x="432" y="133" type="line"/>
      <point x="146" y="133" type="line"/>
      <point x="215" y="569" type="line"/>
      <point x="501" y="569" type="line"/>
      <point x="519" y="686" type="line"/>
    </contour>
    <contour>
      <point x="244" y="727" type="line"/>
      <point x="383" y="727" type="line"/>
      <point x="405" y="859" type="line"/>
      <point x="266" y="859" type="line"/>
    </contour>
  </outline>
</glyph>
<glyph name="ccaron" format="2">
  <advance width="423"/>
  <unicode hex="010D"/>
  <outline>
    <contour>
      <point x="120" y="686" type="line"/>
      <point x="13" y="10" type="line"/>
      <point x="412" y="10" type="line"/>
      <point x="432" y="133" type="line"/>
      <point x="146" y="133" type="line"/>
      <point x="215" y="569" type="line"/>
      <point x="501" y="569" type="line"/>
      <point x="519" y="686" type="line"/>
    </contour>
    <contour>
      <point x="520" y="833" type="line"/>
      <point x="405" y="833" type="line"/>
      <point x="364" y="771" type="line"/>
      <point x="322" y="831" type="line"/>
      <point x="212" y="831" type="line"/>
      <point x="287" y="726" type="line"/>
      <point x="447" y="726" type="line"/>
    </contour>
  </outline>
</glyph>
<glyph name="Dcaron" format="2">
  <advance width="422"/>
  <unicode hex="010E"/>
  <outline>
    <contour>
      <point x="376" y="495" type="line"/>
      <point x="319" y="133" type="line"/>
      <point x="146" y="133" type="line"/>
      <point x="215" y="569" type="line"/>
      <point x="275" y="569" type="line"/>
    </contour>
    <contour>
      <point x="13" y="10" type="line"/>
      <point x="411" y="10" type="line"/>
      <point x="499" y="563" type="line"/>
      <point x="321" y="686" type="line"/>
      <point x="120" y="686" type="line"/>
    </contour>
    <contour>
      <point x="312" y="833" type="line"/>
      <point x="271" y="771" type="line"/>
      <point x="229" y="831" type="line"/>
      <point x="119" y="831" type="line"/>
      <point x="194" y="726" type="line"/>
      <point x="354" y="726" type="line"/>
      <point x="427" y="833" type="line"/>
    </contour>
  </outline>
</glyph>
<glyph name="dcaron" format="2">
  <advance width="422"/>
  <unicode hex="010F"/>
  <outline>
    <contour>
      <point x="376" y="495" type="line"/>
      <point x="319" y="133" type="line"/>
      <point x="146" y="133" type="line"/>
      <point x="215" y="569" type="line"/>
      <point x="275" y="569" type="line"/>
    </contour>
    <contour>
      <point x="13" y="10" type="line"/>
      <point x="411" y="10" type="line"/>
      <point x="499" y="563" type="line"/>
      <point x="321" y="686" type="line"/>
      <point x="120" y="686" type="line"/>
    </contour>
    <contour>
      <point x="175" y="836" type="line"/>
      <point x="157" y="722" type="line"/>
      <point x="437" y="722" type="line"/>
      <point x="455" y="836" type="line"/>
    </contour>
  </outline>
</glyph>
<glyph name="dcroat" format="2">
  <advance width="493"/>
  <unicode hex="0111"/>
  <outline>
    <contour>
      <point x="255" y="424" type="line"/>
      <point x="278" y="569" type="line"/>
      <point x="338" y="569" type="line"/>
      <point x="439" y="495" type="line"/>
      <point x="382" y="133" type="line"/>
      <point x="209" y="133" type="line"/>
      <point x="237" y="310" type="line"/>
      <point x="349" y="310" type="line"/>
      <point x="367" y="424" type="line"/>
    </contour>
    <contour>
      <point x="87" y="424" type="line"/>
      <point x="69" y="310" type="line"/>
      <point x="123" y="310" type="line"/>
      <point x="76" y="10" type="line"/>
      <point x="474" y="10" type="line"/>
      <point x="562" y="563" type="line"/>
      <point x="384" y="686" type="line"/>
      <point x="183" y="686" type="line"/>
      <point x="142" y="424" type="line"/>
    </contour>
  </outline>
</glyph>
<glyph name="emacron" format="2">
  <advance width="411"/>
  <unicode hex="0113"/>
  <outline>
    <contour>
      <point x="215" y="569" type="line"/>
      <point x="489" y="569" type="line"/>
      <point x="507" y="686" type="line"/>
      <point x="120" y="686" type="line"/>
      <point x="13" y="10" type="line"/>
      <point x="400" y="10" type="line"/>
      <point x="420" y="133" type="line"/>
      <point x="146" y="133" type="line"/>
      <point x="169" y="280" type="line"/>
      <point x="354" y="358" type="line"/>
      <point x="374" y="484" type="line"/>
      <point x="189" y="406" type="line"/>
    </contour>
    <contour>
      <point x="480" y="841" type="line"/>
      <point x="200" y="841" type="line"/>
      <point x="182" y="727" type="line"/>
      <point x="462" y="727" type="line"/>
    </contour>
  </outline>
</glyph>
<glyph name="edotaccent" format="2">
  <advance width="411"/>
  <unicode hex="0117"/>
  <outline>
    <contour>
      <point x="215" y="569" type="line"/>
      <point x="489" y="569" type="line"/>
      <point x="507" y="686" type="line"/>
      <point x="120" y="686" type="line"/>
      <point x="13" y="10" type="line"/>
      <point x="400" y="10" type="line"/>
      <point x="420" y="133" type="line"/>
      <point x="146" y="133" type="line"/>
      <point x="169" y="280" type="line"/>
      <point x="354" y="358" type="line"/>
      <point x="374" y="484" type="line"/>
      <point x="189" y="406" type="line"/>
    </contour>
    <contour>
      <point x="233" y="727" type="line"/>
      <point x="372" y="727" type="line"/>
      <point x="394" y="859" type="line"/>
      <point x="255" y="859" type="line"/>
    </contour>
  </outline>
</glyph>
<glyph name="eogonek" format="2">
  <advance width="411"/>
  <unicode hex="0119"/>
  <outline>
    <contour>
      <point x="326" y="10" type="line"/>
      <point x="400" y="10" type="line"/>
      <point x="420" y="133" type="line"/>
      <point x="146" y="133" type="line"/>
      <point x="169" y="280" type="line"/>
      <point x="354" y="358" type="line"/>
      <point x="374" y="484" type="line"/>
      <point x="189" y="406" type="line"/>
      <point x="215" y="569" type="line"/>
      <point x="489" y="569" type="line"/>
      <point x="507" y="686" type="line"/>
      <point x="120" y="686" type="line"/>
      <point x="13" y="10" type="line"/>
      <point x="222" y="10" type="line"/>
      <point x="206" y="-80" type="line"/>
      <point x="68" y="-80" type="line"/>
      <point x="30" y="-300" type="line"/>
      <point x="305" y="-300" type="line"/>
      <point x="322" y="-201" type="line"/>
      <point x="146" y="-201" type="line"/>
      <point x="149" y="-169" type="line"/>
      <point x="289" y="-169" type="line"/>
    </contour>
  </outline>
</glyph>
<glyph name="ecaron" format="2">
  <advance width="411"/>
  <unicode hex="011B"/>
  <outline>
    <contour>
      <point x="215" y="569" type="line"/>
      <point x="489" y="569" type="line"/>
      <point x="507" y="686" type="line"/>
      <point x="120" y="686" type="line"/>
      <point x="13" y="10" type="line"/>
      <point x="400" y="10" type="line"/>
      <point x="420" y="133" type="line"/>
      <point x="146" y="133" type="line"/>
      <point x="169" y="280" type="line"/>
      <point x="354" y="358" type="line"/>
      <point x="374" y="484" type="line"/>
      <point x="189" y="406" type="line"/>
    </contour>
    <contour>
      <point x="465" y="833" type="line"/>
      <point x="350" y="833" type="line"/>
      <point x="309" y="771" type="line"/>
      <point x="267" y="831" type="line"/>
      <point x="157" y="831" type="line"/>
      <point x="232" y="726" type="line"/>
      <point x="392" y="726" type="line"/>
    </contour>
  </outline>
</glyph>
<glyph name="Gbreve" format="2">
  <advance width="423"/>
  <unicode hex="011E"/>
  <outline>
    <contour>
      <point x="308" y="802" type="curve" smooth="yes"/>
      <point x="285" y="802"/>
      <point x="266" y="817"/>
      <point x="263" y="840" type="curve"/>
      <point x="170" y="840" type="line"/>
      <point x="173" y="767"/>
      <point x="232" y="711"/>
      <point x="308" y="711" type="curve" smooth="yes"/>
      <point x="384" y="711"/>
      <point x="443" y="767"/>
      <point x="448" y="840" type="curve"/>
      <point x="353" y="840" type="line"/>
      <point x="350" y="817"/>
      <point x="331" y="802"/>
    </contour>
    <contour>
      <point x="120" y="686" type="line"/>
      <point x="13" y="10" type="line"/>
      <point x="412" y="10" type="line"/>
      <point x="485" y="472" type="line"/>
      <point x="249" y="359" type="line"/>
      <point x="229" y="227" type="line"/>
      <point x="344" y="288" type="line"/>
      <point x="320" y="133" type="line"/>
      <point x="146" y="133" type="line"/>
      <point x="215" y="569" type="line"/>
      <point x="501" y="569" type="line"/>
      <point x="519" y="686" type="line"/>
    </contour>
  </outline>
</glyph>
<glyph name="Gdotaccent" format="2">
  <advance width="423"/>
  <unicode hex="0120"/>
  <outline>
    <contour>
      <point x="120" y="686" type="line"/>
      <point x="13" y="10" type="line"/>
      <point x="412" y="10" type="line"/>
      <point x="485" y="472" type="line"/>
      <point x="249" y="359" type="line"/>
      <point x="229" y="227" type="line"/>
      <point x="344" y="288" type="line"/>
      <point x="320" y="133" type="line"/>
      <point x="146" y="133" type="line"/>
      <point x="215" y="569" type="line"/>
      <point x="501" y="569" type="line"/>
      <point x="519" y="686" type="line"/>
    </contour>
    <contour>
      <point x="233" y="727" type="line"/>
      <point x="372" y="727" type="line"/>
      <point x="394" y="859" type="line"/>
      <point x="255" y="859" type="line"/>
    </contour>
  </outline>
</glyph>
<glyph name="uni0122" format="2">
  <advance width="423"/>
  <unicode hex="0122"/>
  <outline>
    <contour>
      <point x="120" y="686" type="line"/>
      <point x="13" y="10" type="line"/>
      <point x="412" y="10" type="line"/>
      <point x="485" y="472" type="line"/>
      <point x="249" y="359" type="line"/>
      <point x="229" y="227" type="line"/>
      <point x="344" y="288" type="line"/>
      <point x="320" y="133" type="line"/>
      <point x="146" y="133" type="line"/>
      <point x="215" y="569" type="line"/>
      <point x="501" y="569" type="line"/>
      <point x="519" y="686" type="line"/>
    </contour>
    <contour>
      <point x="248" y="730" type="line"/>
      <point x="361" y="730" type="line"/>
      <point x="399" y="965" type="line"/>
      <point x="286" y="965" type="line"/>
    </contour>
  </outline>
</glyph>
<glyph name="Hbar" format="2">
  <advance width="537"/>
  <unicode hex="0126"/>
  <outline>
    <contour>
      <point x="426" y="444" type="line"/>
      <point x="251" y="444" type="line"/>
      <point x="260" y="500" type="line"/>
      <point x="435" y="500" type="line"/>
    </contour>
    <contour>
      <point x="464" y="686" type="line" name=".hr01"/>
      <point x="453" y="614" type="line" name=".hr02"/>
      <point x="278" y="614" type="line"/>
      <point x="289" y="686" type="line" name=".hr03"/>
      <point x="176" y="686" type="line"/>
      <point x="165" y="614" type="line" name=".hr04"/>
      <point x="102" y="614" type="line"/>
      <point x="84" y="500" type="line"/>
      <point x="147" y="500" type="line"/>
      <point x="69" y="10" type="line"/>
      <point x="182" y="10" type="line"/>
      <point x="233" y="330" type="line"/>
      <point x="408" y="330" type="line"/>
      <point x="357" y="10" type="line"/>
      <point x="471" y="10" type="line"/>
      <point x="549" y="500" type="line"/>
      <point x="607" y="500" type="line"/>
      <point x="625" y="614" type="line"/>
      <point x="567" y="614" type="line"/>
      <point x="578" y="686" type="line" name=".hr05"/>
    </contour>
  </outline>
</glyph>
<glyph name="Imacron" format="2">
  <advance width="137"/>
  <unicode hex="012A"/>
  <outline>
    <contour>
      <point x="13" y="10" type="line"/>
      <point x="126" y="10" type="line"/>
      <point x="233" y="686" type="line"/>
      <point x="120" y="686" type="line"/>
    </contour>
    <contour>
      <point x="338" y="841" type="line"/>
      <point x="58" y="841" type="line"/>
      <point x="40" y="727" type="line"/>
      <point x="320" y="727" type="line"/>
    </contour>
  </outline>
</glyph>
<glyph name="Iogonek" format="2">
  <advance width="137"/>
  <unicode hex="012E"/>
  <outline>
    <contour>
      <point x="118" y="10" type="line"/>
      <point x="126" y="10" type="line"/>
      <point x="233" y="686" type="line"/>
      <point x="120" y="686" type="line"/>
      <point x="13" y="10" type="line"/>
      <point x="14" y="10" type="line"/>
      <point x="-2" y="-80" type="line"/>
      <point x="-140" y="-80" type="line"/>
      <point x="-178" y="-300" type="line"/>
      <point x="97" y="-300" type="line"/>
      <point x="114" y="-201" type="line"/>
      <point x="-62" y="-201" type="line"/>
      <point x="-59" y="-169" type="line"/>
      <point x="81" y="-169" type="line"/>
    </contour>
  </outline>
</glyph>
<glyph name="Idotaccent" format="2">
  <advance width="137"/>
  <unicode hex="0130"/>
  <outline>
    <contour>
      <point x="13" y="10" type="line"/>
      <point x="126" y="10" type="line"/>
      <point x="233" y="686" type="line"/>
      <point x="120" y="686" type="line"/>
    </contour>
    <contour>
      <point x="118" y="735" type="line"/>
      <point x="257" y="735" type="line"/>
      <point x="279" y="867" type="line"/>
      <point x="140" y="867" type="line"/>
    </contour>
  </outline>
</glyph>
<glyph name="dotlessi" format="2">
  <advance width="137"/>
  <unicode hex="0131"/>
  <outline>
    <contour>
      <point x="13" y="10" type="line"/>
      <point x="126" y="10" type="line"/>
      <point x="233" y="686" type="line"/>
      <point x="120" y="686" type="line"/>
    </contour>
  </outline>
</glyph>
<glyph name="uni0137" format="2">
  <advance width="423"/>
  <unicode hex="0137"/>
  <outline>
    <contour>
      <point x="247" y="-210" type="line"/>
      <point x="273" y="-43" type="line"/>
      <point x="160" y="-43" type="line"/>
      <point x="134" y="-210" type="line"/>
    </contour>
    <contour>
      <point x="186" y="390" type="line"/>
      <point x="233" y="686" type="line"/>
      <point x="120" y="686" type="line"/>
      <point x="13" y="10" type="line"/>
      <point x="126" y="10" type="line"/>
      <point x="164" y="248" type="line"/>
      <point x="271" y="324" type="line"/>
      <point x="350" y="324" type="line"/>
      <point x="300" y="10" type="line"/>
      <point x="412" y="10" type="line"/>
      <point x="477" y="421" type="line"/>
      <point x="407" y="421" type="line"/>
      <point x="486" y="477" type="line"/>
      <point x="519" y="686" type="line"/>
      <point x="397" y="686" type="line"/>
      <point x="370" y="514" type="line"/>
    </contour>
  </outline>
</glyph>
<glyph name="Lacute" format="2">
  <advance width="394"/>
  <unicode hex="0139"/>
  <outline>
    <contour>
      <point x="233" y="686" type="line"/>
      <point x="120" y="686" type="line"/>
      <point x="13" y="10" type="line"/>
      <point x="383" y="10" type="line"/>
      <point x="403" y="133" type="line"/>
      <point x="146" y="133" type="line"/>
    </contour>
    <contour>
      <point x="291" y="833" type="line"/>
      <point x="176" y="833" type="line"/>
      <point x="103" y="726" type="line"/>
      <point x="218" y="726" type="line"/>
    </contour>
  </outline>
</glyph>
<glyph name="uni013C" format="2">
  <advance width="394"/>
  <unicode hex="013C"/>
  <outline>
    <contour>
      <point x="209" y="-210" type="line"/>
      <point x="235" y="-43" type="line"/>
      <point x="122" y="-43" type="line"/>
      <point x="96" y="-210" type="line"/>
    </contour>
    <contour>
      <point x="233" y="686" type="line"/>
      <point x="120" y="686" type="line"/>
      <point x="13" y="10" type="line"/>
      <point x="383" y="10" type="line"/>
      <point x="403" y="133" type="line"/>
      <point x="146" y="133" type="line"/>
    </contour>
  </outline>
</glyph>
<glyph name="Lcaron" format="2">
  <advance width="394"/>
  <unicode hex="013D"/>
  <outline>
    <contour>
      <point x="233" y="686" type="line"/>
      <point x="120" y="686" type="line"/>
      <point x="13" y="10" type="line"/>
      <point x="383" y="10" type="line"/>
      <point x="403" y="133" type="line"/>
      <point x="146" y="133" type="line"/>
    </contour>
    <contour>
      <point x="140" y="730" type="line"/>
      <point x="253" y="730" type="line"/>
      <point x="291" y="965" type="line"/>
      <point x="178" y="965" type="line"/>
    </contour>
  </outline>
</glyph>
<glyph name="Lslash" format="2">
  <advance width="491"/>
  <unicode hex="0141"/>
  <outline>
    <contour>
      <point x="279" y="432" type="line"/>
      <point x="319" y="686" type="line"/>
      <point x="206" y="686" type="line"/>
      <point x="166" y="432" type="line"/>
      <point x="99" y="432" type="line"/>
      <point x="81" y="318" type="line"/>
      <point x="148" y="318" type="line"/>
      <point x="99" y="10" type="line"/>
      <point x="469" y="10" type="line"/>
      <point x="489" y="133" type="line"/>
      <point x="232" y="133" type="line"/>
      <point x="261" y="318" type="line"/>
      <point x="361" y="318" type="line"/>
      <point x="379" y="432" type="line"/>
    </contour>
  </outline>
</glyph>
<glyph name="nacute" format="2">
  <advance width="422"/>
  <unicode hex="0144"/>
  <outline>
    <contour>
      <point x="275" y="569" type="line"/>
      <point x="376" y="495" type="line"/>
      <point x="299" y="10" type="line"/>
      <point x="411" y="10" type="line"/>
      <point x="499" y="563" type="line"/>
      <point x="321" y="686" type="line"/>
      <point x="120" y="686" type="line"/>
      <point x="13" y="10" type="line"/>
      <point x="126" y="10" type="line"/>
      <point x="215" y="569" type="line"/>
    </contour>
    <contour>
      <point x="408" y="833" type="line"/>
      <point x="293" y="833" type="line"/>
      <point x="220" y="726" type="line"/>
      <point x="335" y="726" type="line"/>
    </contour>
  </outline>
</glyph>
<glyph name="uni0146" format="2">
  <advance width="422"/>
  <unicode hex="0146"/>
  <outline>
    <contour>
      <point x="209" y="-210" type="line"/>
      <point x="235" y="-43" type="line"/>
      <point x="122" y="-43" type="line"/>
      <point x="96" y="-210" type="line"/>
    </contour>
    <contour>
      <point x="275" y="569" type="line"/>
      <point x="376" y="495" type="line"/>
      <point x="299" y="10" type="line"/>
      <point x="411" y="10" type="line"/>
      <point x="499" y="563" type="line"/>
      <point x="321" y="686" type="line"/>
      <point x="120" y="686" type="line"/>
      <point x="13" y="10" type="line"/>
      <point x="126" y="10" type="line"/>
      <point x="215" y="569" type="line"/>
    </contour>
  </outline>
</glyph>
<glyph name="Ncaron" format="2">
  <advance width="422"/>
  <unicode hex="0147"/>
  <outline>
    <contour>
      <point x="275" y="569" type="line"/>
      <point x="376" y="495" type="line"/>
      <point x="299" y="10" type="line"/>
      <point x="411" y="10" type="line"/>
      <point x="499" y="563" type="line"/>
      <point x="321" y="686" type="line"/>
      <point x="120" y="686" type="line"/>
      <point x="13" y="10" type="line"/>
      <point x="126" y="10" type="line"/>
      <point x="215" y="569" type="line"/>
    </contour>
    <contour>
      <point x="476" y="833" type="line"/>
      <point x="361" y="833" type="line"/>
      <point x="320" y="771" type="line"/>
      <point x="278" y="831" type="line"/>
      <point x="168" y="831" type="line"/>
      <point x="243" y="726" type="line"/>
      <point x="403" y="726" type="line"/>
    </contour>
  </outline>
</glyph>
<glyph name="Ohungarumlaut" format="2">
  <advance width="423"/>
  <unicode hex="0150"/>
  <outline>
    <contour>
      <point x="120" y="686" type="line"/>
      <point x="13" y="10" type="line"/>
      <point x="412" y="10" type="line"/>
      <point x="519" y="686" type="line"/>
    </contour>
    <contour>
      <point x="319" y="133" type="line"/>
      <point x="145" y="133" type="line"/>
      <point x="214" y="569" type="line"/>
      <point x="388" y="569" type="line"/>
    </contour>
    <contour>
      <point x="352" y="833" type="line"/>
      <point x="237" y="833" type="line"/>
      <point x="164" y="726" type="line"/>
      <point x="279" y="726" type="line"/>
    </contour>
    <contour>
      <point x="521" y="833" type="line"/>
      <point x="406" y="833" type="line"/>
      <point x="333" y="726" type="line"/>
      <point x="448" y="726" type="line"/>
    </contour>
  </outline>
</glyph>
<glyph name="OE" format="2">
  <advance width="696"/>
  <unicode hex="0152"/>
  <outline>
    <contour>
      <point x="387" y="569" type="line"/>
      <point x="318" y="133" type="line"/>
      <point x="145" y="133" type="line"/>
      <point x="214" y="569" type="line"/>
    </contour>
    <contour>
      <point x="775" y="569" type="line"/>
      <point x="793" y="686" type="line"/>
      <point x="120" y="686" type="line"/>
      <point x="13" y="10" type="line"/>
      <point x="686" y="10" type="line"/>
      <point x="706" y="133" type="line"/>
      <point x="432" y="133" type="line"/>
      <point x="455" y="280" type="line"/>
      <point x="640" y="358" type="line"/>
      <point x="660" y="484" type="line"/>
      <point x="475" y="406" type="line"/>
      <point x="501" y="569" type="line"/>
    </contour>
  </outline>
</glyph>
<glyph name="Racute" format="2">
  <advance width="423"/>
  <unicode hex="0154"/>
  <outline>
    <contour>
      <point x="215" y="569" type="line"/>
      <point x="389" y="569" type="line"/>
      <point x="375" y="482" type="line"/>
      <point x="179" y="347" type="line"/>
    </contour>
    <contour>
      <point x="264" y="281" type="line"/>
      <point x="343" y="281" type="line"/>
      <point x="300" y="10" type="line"/>
      <point x="412" y="10" type="line"/>
      <point x="470" y="378" type="line"/>
      <point x="400" y="378" type="line"/>
      <point x="479" y="434" type="line"/>
      <point x="519" y="686" type="line"/>
      <point x="120" y="686" type="line"/>
      <point x="13" y="10" type="line"/>
      <point x="126" y="10" type="line"/>
      <point x="157" y="205" type="line"/>
    </contour>
    <contour>
      <point x="302" y="833" type="line"/>
      <point x="229" y="726" type="line"/>
      <point x="344" y="726" type="line"/>
      <point x="417" y="833" type="line"/>
    </contour>
  </outline>
</glyph>
<glyph name="Rcaron" format="2">
  <advance width="423"/>
  <unicode hex="0158"/>
  <outline>
    <contour>
      <point x="215" y="569" type="line"/>
      <point x="389" y="569" type="line"/>
      <point x="375" y="482" type="line"/>
      <point x="179" y="347" type="line"/>
    </contour>
    <contour>
      <point x="264" y="281" type="line"/>
      <point x="343" y="281" type="line"/>
      <point x="300" y="10" type="line"/>
      <point x="412" y="10" type="line"/>
      <point x="470" y="378" type="line"/>
      <point x="400" y="378" type="line"/>
      <point x="479" y="434" type="line"/>
      <point x="519" y="686" type="line"/>
      <point x="120" y="686" type="line"/>
      <point x="13" y="10" type="line"/>
      <point x="126" y="10" type="line"/>
      <point x="157" y="205" type="line"/>
    </contour>
    <contour>
      <point x="362" y="833" type="line"/>
      <point x="321" y="771" type="line"/>
      <point x="279" y="831" type="line"/>
      <point x="169" y="831" type="line"/>
      <point x="244" y="726" type="line"/>
      <point x="404" y="726" type="line"/>
      <point x="477" y="833" type="line"/>
    </contour>
  </outline>
</glyph>
<glyph name="sacute" format="2">
  <advance width="423"/>
  <unicode hex="015B"/>
  <outline>
    <contour>
      <point x="199" y="472" type="line"/>
      <point x="215" y="569" type="line"/>
      <point x="387" y="569" type="line"/>
      <point x="370" y="467" type="line"/>
      <point x="492" y="516" type="line"/>
      <point x="519" y="686" type="line"/>
      <point x="120" y="686" type="line"/>
      <point x="76" y="405" type="line"/>
      <point x="337" y="253" type="line"/>
      <point x="318" y="133" type="line"/>
      <point x="145" y="133" type="line"/>
      <point x="161" y="239" type="line"/>
      <point x="49" y="239" type="line"/>
      <point x="13" y="10" type="line"/>
      <point x="412" y="10" type="line"/>
      <point x="462" y="323" type="line"/>
    </contour>
    <contour>
      <point x="437" y="833" type="line"/>
      <point x="322" y="833" type="line"/>
      <point x="249" y="726" type="line"/>
      <point x="364" y="726" type="line"/>
    </contour>
  </outline>
</glyph>
<glyph name="Scedilla" format="2">
  <advance width="423"/>
  <unicode hex="015E"/>
  <outline>
    <contour>
      <point x="222" y="10" type="line"/>
      <point x="412" y="10" type="line"/>
      <point x="462" y="323" type="line"/>
      <point x="199" y="472" type="line"/>
      <point x="215" y="569" type="line"/>
      <point x="387" y="569" type="line"/>
      <point x="370" y="467" type="line"/>
      <point x="492" y="516" type="line"/>
      <point x="519" y="686" type="line"/>
      <point x="120" y="686" type="line"/>
      <point x="76" y="405" type="line"/>
      <point x="337" y="253" type="line"/>
      <point x="318" y="133" type="line"/>
      <point x="145" y="133" type="line"/>
      <point x="161" y="239" type="line"/>
      <point x="49" y="239" type="line"/>
      <point x="13" y="10" type="line"/>
      <point x="115" y="10" type="line"/>
      <point x="91" y="-119" type="line"/>
      <point x="248" y="-198" type="line"/>
      <point x="77" y="-198" type="line"/>
      <point x="59" y="-301" type="line"/>
      <point x="338" y="-301" type="line"/>
      <point x="365" y="-140" type="line"/>
      <point x="207" y="-63" type="line"/>
    </contour>
  </outline>
</glyph>
<glyph name="scaron" format="2">
  <advance width="423"/>
  <unicode hex="0161"/>
  <outline>
    <contour>
      <point x="199" y="472" type="line"/>
      <point x="215" y="569" type="line"/>
      <point x="387" y="569" type="line"/>
      <point x="370" y="467" type="line"/>
      <point x="492" y="516" type="line"/>
      <point x="519" y="686" type="line"/>
      <point x="120" y="686" type="line"/>
      <point x="76" y="405" type="line"/>
      <point x="337" y="253" type="line"/>
      <point x="318" y="133" type="line"/>
      <point x="145" y="133" type="line"/>
      <point x="161" y="239" type="line"/>
      <point x="49" y="239" type="line"/>
      <point x="13" y="10" type="line"/>
      <point x="412" y="10" type="line"/>
      <point x="462" y="323" type="line"/>
    </contour>
    <contour>
      <point x="470" y="833" type="line"/>
      <point x="355" y="833" type="line"/>
      <point x="314" y="771" type="line"/>
      <point x="272" y="831" type="line"/>
      <point x="162" y="831" type="line"/>
      <point x="237" y="726" type="line"/>
      <point x="397" y="726" type="line"/>
    </contour>
  </outline>
</glyph>
<glyph name="Tcaron" format="2">
  <advance width="377"/>
  <unicode hex="0164"/>
  <outline>
    <contour>
      <point x="102" y="569" type="line"/>
      <point x="224" y="569" type="line"/>
      <point x="135" y="10" type="line"/>
      <point x="248" y="10" type="line"/>
      <point x="337" y="569" type="line"/>
      <point x="455" y="569" type="line"/>
      <point x="473" y="686" type="line"/>
      <point x="120" y="686" type="line"/>
    </contour>
    <contour>
      <point x="448" y="836" type="line"/>
      <point x="333" y="836" type="line"/>
      <point x="292" y="774" type="line"/>
      <point x="250" y="834" type="line"/>
      <point x="140" y="834" type="line"/>
      <point x="215" y="729" type="line"/>
      <point x="375" y="729" type="line"/>
    </contour>
  </outline>
</glyph>
<glyph name="tcaron" format="2">
  <advance width="601"/>
  <unicode hex="0165"/>
  <outline>
    <contour>
      <point x="102" y="569" type="line"/>
      <point x="224" y="569" type="line"/>
      <point x="135" y="10" type="line"/>
      <point x="248" y="10" type="line"/>
      <point x="337" y="569" type="line"/>
      <point x="455" y="569" type="line"/>
      <point x="473" y="686" type="line"/>
      <point x="120" y="686" type="line"/>
    </contour>
    <contour>
      <point x="506" y="451" type="line"/>
      <point x="619" y="451" type="line"/>
      <point x="657" y="686" type="line"/>
      <point x="544" y="686" type="line"/>
    </contour>
  </outline>
</glyph>
<glyph name="Uring" format="2">
  <advance width="423"/>
  <unicode hex="016E"/>
  <outline>
    <contour>
      <point x="232" y="826" type="curve" smooth="yes"/>
      <point x="232" y="770"/>
      <point x="275" y="725"/>
      <point x="332" y="725" type="curve" smooth="yes"/>
      <point x="387" y="725"/>
      <point x="432" y="770"/>
      <point x="432" y="826" type="curve" smooth="yes"/>
      <point x="432" y="882"/>
      <point x="387" y="928"/>
      <point x="332" y="928" type="curve" smooth="yes"/>
      <point x="275" y="928"/>
      <point x="232" y="882"/>
    </contour>
    <contour>
      <point x="295" y="826" type="curve" smooth="yes"/>
      <point x="295" y="846"/>
      <point x="311" y="861"/>
      <point x="330" y="861" type="curve" smooth="yes"/>
      <point x="351" y="861"/>
      <point x="366" y="846"/>
      <point x="366" y="826" type="curve" smooth="yes"/>
      <point x="366" y="806"/>
      <point x="351" y="791"/>
      <point x="330" y="791" type="curve" smooth="yes"/>
      <point x="311" y="791"/>
      <point x="295" y="806"/>
    </contour>
    <contour>
      <point x="319" y="133" type="line"/>
      <point x="145" y="133" type="line"/>
      <point x="232" y="686" type="line"/>
      <point x="120" y="686" type="line"/>
      <point x="13" y="10" type="line"/>
      <point x="412" y="10" type="line"/>
      <point x="519" y="686" type="line"/>
      <point x="406" y="686" type="line"/>
    </contour>
  </outline>
</glyph>
<glyph name="uhungarumlaut" format="2">
  <advance width="423"/>
  <unicode hex="0171"/>
  <outline>
    <contour>
      <point x="319" y="133" type="line"/>
      <point x="145" y="133" type="line"/>
      <point x="232" y="686" type="line"/>
      <point x="120" y="686" type="line"/>
      <point x="13" y="10" type="line"/>
      <point x="412" y="10" type="line"/>
      <point x="519" y="686" type="line"/>
      <point x="406" y="686" type="line"/>
    </contour>
    <contour>
      <point x="354" y="833" type="line"/>
      <point x="239" y="833" type="line"/>
      <point x="166" y="726" type="line"/>
      <point x="281" y="726" type="line"/>
    </contour>
    <contour>
      <point x="523" y="833" type="line"/>
      <point x="408" y="833" type="line"/>
      <point x="335" y="726" type="line"/>
      <point x="450" y="726" type="line"/>
    </contour>
  </outline>
</glyph>
<glyph name="Uogonek" format="2">
  <advance width="423"/>
  <unicode hex="0172"/>
  <outline>
    <contour>
      <point x="265" y="10" type="line"/>
      <point x="412" y="10" type="line"/>
      <point x="519" y="686" type="line"/>
      <point x="406" y="686" type="line"/>
      <point x="319" y="133" type="line"/>
      <point x="145" y="133" type="line"/>
      <point x="232" y="686" type="line"/>
      <point x="120" y="686" type="line"/>
      <point x="13" y="10" type="line"/>
      <point x="161" y="10" type="line"/>
      <point x="145" y="-80" type="line"/>
      <point x="7" y="-80" type="line"/>
      <point x="-31" y="-300" type="line"/>
      <point x="244" y="-300" type="line"/>
      <point x="261" y="-201" type="line"/>
      <point x="85" y="-201" type="line"/>
      <point x="88" y="-169" type="line"/>
      <point x="228" y="-169" type="line"/>
    </contour>
  </outline>
</glyph>
<glyph name="Wcircumflex" format="2">
  <advance width="611"/>
  <unicode hex="0174"/>
  <outline>
    <contour>
      <point x="266" y="126" type="line"/>
      <point x="144" y="126" type="line"/>
      <point x="233" y="686" type="line"/>
      <point x="120" y="686" type="line"/>
      <point x="13" y="10" type="line"/>
      <point x="403" y="10" type="line"/>
      <point x="619" y="132" type="line"/>
      <point x="707" y="686" type="line"/>
      <point x="595" y="686" type="line"/>
      <point x="518" y="200" type="line"/>
      <point x="393" y="126" type="line"/>
      <point x="379" y="126" type="line"/>
      <point x="468" y="686" type="line"/>
      <point x="355" y="686" type="line"/>
    </contour>
    <contour>
      <point x="505" y="833" type="line"/>
      <point x="345" y="833" type="line"/>
      <point x="270" y="728" type="line"/>
      <point x="380" y="728" type="line"/>
      <point x="422" y="788" type="line"/>
      <point x="463" y="726" type="line"/>
      <point x="578" y="726" type="line"/>
    </contour>
  </outline>
</glyph>
<glyph name="Ycircumflex" format="2">
  <advance width="407"/>
  <unicode hex="0176"/>
  <outline>
    <contour>
      <point x="199" y="474" type="line"/>
      <point x="232" y="686" type="line"/>
      <point x="120" y="686" type="line"/>
      <point x="76" y="410" type="line"/>
      <point x="194" y="313" type="line"/>
      <point x="146" y="10" type="line"/>
      <point x="260" y="10" type="line"/>
      <point x="308" y="314" type="line"/>
      <point x="459" y="410" type="line"/>
      <point x="503" y="686" type="line"/>
      <point x="391" y="686" type="line"/>
      <point x="358" y="474" type="line"/>
      <point x="269" y="420" type="line"/>
    </contour>
    <contour>
      <point x="389" y="833" type="line"/>
      <point x="229" y="833" type="line"/>
      <point x="154" y="728" type="line"/>
      <point x="264" y="728" type="line"/>
      <point x="306" y="788" type="line"/>
      <point x="347" y="726" type="line"/>
      <point x="462" y="726" type="line"/>
    </contour>
  </outline>
</glyph>
<glyph name="zacute" format="2">
  <advance width="424"/>
  <unicode hex="017A"/>
  <outline>
    <contour>
      <point x="102" y="569" type="line"/>
      <point x="366" y="569" type="line"/>
      <point x="32" y="132" type="line"/>
      <point x="13" y="10" type="line"/>
      <point x="412" y="10" type="line"/>
      <point x="433" y="133" type="line"/>
      <point x="175" y="133" type="line"/>
      <point x="501" y="569" type="line"/>
      <point x="519" y="686" type="line"/>
      <point x="120" y="686" type="line"/>
    </contour>
    <contour>
      <point x="433" y="833" type="line"/>
      <point x="318" y="833" type="line"/>
      <point x="245" y="726" type="line"/>
      <point x="360" y="726" type="line"/>
    </contour>
  </outline>
</glyph>
<glyph name="zcaron" format="2">
  <advance width="424"/>
  <unicode hex="017E"/>
  <outline>
    <contour>
      <point x="102" y="569" type="line"/>
      <point x="366" y="569" type="line"/>
      <point x="32" y="132" type="line"/>
      <point x="13" y="10" type="line"/>
      <point x="412" y="10" type="line"/>
      <point x="433" y="133" type="line"/>
      <point x="175" y="133" type="line"/>
      <point x="501" y="569" type="line"/>
      <point x="519" y="686" type="line"/>
      <point x="120" y="686" type="line"/>
    </contour>
  </outline>
</glyph>
<glyph name="uni0219" format="2">
  <advance width="423"/>
  <unicode hex="0219"/>
  <outline>
    <contour>
      <point x="199" y="472" type="line"/>
      <point x="215" y="569" type="line"/>
      <point x="387" y="569" type="line"/>
      <point x="370" y="467" type="line"/>
      <point x="492" y="516" type="line"/>
      <point x="519" y="686" type="line"/>
      <point x="120" y="686" type="line"/>
      <point x="76" y="405" type="line"/>
      <point x="337" y="253" type="line"/>
      <point x="318" y="133" type="line"/>
      <point x="145" y="133" type="line"/>
      <point x="161" y="239" type="line"/>
      <point x="49" y="239" type="line"/>
      <point x="13" y="10" type="line"/>
      <point x="412" y="10" type="line"/>
      <point x="462" y="323" type="line"/>
    </contour>
  </outline>
</glyph>
<glyph name="circumflex" format="2">
  <advance width="833"/>
  <unicode hex="02C6"/>
  <outline>
    <contour>
      <point x="362" y="833" type="line"/>
      <point x="202" y="833" type="line"/>
      <point x="127" y="728" type="line"/>
      <point x="237" y="728" type="line"/>
      <point x="279" y="788" type="line"/>
      <point x="320" y="726" type="line"/>
      <point x="435" y="726" type="line"/>
    </contour>
  </outline>
</glyph>
<glyph name="dotaccent" format="2">
  <advance width="833"/>
  <unicode hex="02D9"/>
  <outline>
    <contour>
      <point x="244" y="727" type="line"/>
      <point x="383" y="727" type="line"/>
      <point x="405" y="859" type="line"/>
      <point x="266" y="859" type="line"/>
    </contour>
  </outline>
</glyph>
<glyph name="ring" format="2">
  <advance width="358"/>
  <unicode hex="02DA"/>
  <outline>
    <contour>
      <point x="121" y="826" type="curve" smooth="yes"/>
      <point x="121" y="770"/>
      <point x="164" y="725"/>
      <point x="221" y="725" type="curve" smooth="yes"/>
      <point x="276" y="725"/>
      <point x="321" y="770"/>
      <point x="321" y="826" type="curve" smooth="yes"/>
      <point x="321" y="882"/>
      <point x="276" y="928"/>
      <point x="221" y="928" type="curve" smooth="yes"/>
      <point x="164" y="928"/>
      <point x="121" y="882"/>
    </contour>
    <contour>
      <point x="184" y="826" type="curve" smooth="yes"/>
      <point x="184" y="846"/>
      <point x="200" y="861"/>
      <point x="219" y="861" type="curve" smooth="yes"/>
      <point x="240" y="861"/>
      <point x="255" y="846"/>
      <point x="255" y="826" type="curve" smooth="yes"/>
      <point x="255" y="806"/>
      <point x="240" y="791"/>
      <point x="219" y="791" type="curve" smooth="yes"/>
      <point x="200" y="791"/>
      <point x="184" y="806"/>
    </contour>
  </outline>
</glyph>
<glyph name="ogonek" format="2">
  <advance width="396"/>
  <unicode hex="02DB"/>
  <outline>
    <contour>
      <point x="257" y="-169" type="line"/>
      <point x="294" y="10" type="line"/>
      <point x="190" y="10" type="line"/>
      <point x="174" y="-80" type="line"/>
      <point x="36" y="-80" type="line"/>
      <point x="-2" y="-300" type="line"/>
      <point x="273" y="-300" type="line"/>
      <point x="290" y="-201" type="line"/>
      <point x="114" y="-201" type="line"/>
      <point x="117" y="-169" type="line"/>
    </contour>
  </outline>
</glyph>
<glyph name="gravecomb" format="2">
  <advance width="343"/>
  <unicode hex="0300"/>
  <outline>
    <contour>
      <point x="320" y="726" type="line"/>
      <point x="435" y="726" type="line"/>
      <point x="362" y="833" type="line"/>
      <point x="247" y="833" type="line"/>
    </contour>
  </outline>
</glyph>
<glyph name="tildecomb" format="2">
  <advance width="543"/>
  <unicode hex="0303"/>
  <outline>
    <contour>
      <point x="429" y="876" type="line"/>
      <point x="412" y="849"/>
      <point x="388" y="831"/>
      <point x="359" y="831" type="curve" smooth="yes"/>
      <point x="319" y="831"/>
      <point x="301" y="877" name=".hr01"/>
      <point x="237" y="877" type="curve" smooth="yes"/>
      <point x="186" y="877"/>
      <point x="138" y="845"/>
      <point x="106" y="798" type="curve"/>
      <point x="165" y="733" type="line"/>
      <point x="182" y="757"/>
      <point x="207" y="777"/>
      <point x="235" y="777" type="curve" smooth="yes"/>
      <point x="277" y="777"/>
      <point x="294" y="730" name=".hr02"/>
      <point x="361" y="730" type="curve" smooth="yes"/>
      <point x="412" y="730"/>
      <point x="458" y="763"/>
      <point x="489" y="810" type="curve"/>
    </contour>
  </outline>
</glyph>
<glyph name="uni0304" format="2">
  <advance width="412"/>
  <unicode hex="0304"/>
  <outline>
    <contour>
      <point x="484" y="841" type="line"/>
      <point x="204" y="841" type="line"/>
      <point x="186" y="727" type="line"/>
      <point x="466" y="727" type="line"/>
    </contour>
  </outline>
</glyph>
<glyph name="uni0306" format="2">
  <advance width="424"/>
  <unicode hex="0306"/>
  <outline>
    <contour>
      <point x="261" y="802" type="curve" smooth="yes"/>
      <point x="238" y="802"/>
      <point x="219" y="817"/>
      <point x="216" y="840" type="curve"/>
      <point x="123" y="840" type="line"/>
      <point x="126" y="767"/>
      <point x="185" y="711"/>
      <point x="261" y="711" type="curve" smooth="yes"/>
      <point x="337" y="711"/>
      <point x="396" y="767"/>
      <point x="401" y="840" type="curve"/>
      <point x="306" y="840" type="line"/>
      <point x="303" y="817"/>
      <point x="284" y="802"/>
    </contour>
  </outline>
</glyph>
<glyph name="Wgrave" format="2">
  <advance width="611"/>
  <unicode hex="1E80"/>
  <outline>
    <contour>
      <point x="266" y="126" type="line"/>
      <point x="144" y="126" type="line"/>
      <point x="233" y="686" type="line"/>
      <point x="120" y="686" type="line"/>
      <point x="13" y="10" type="line"/>
      <point x="403" y="10" type="line"/>
      <point x="619" y="132" type="line"/>
      <point x="707" y="686" type="line"/>
      <point x="595" y="686" type="line"/>
      <point x="518" y="200" type="line"/>
      <point x="393" y="126" type="line"/>
      <point x="379" y="126" type="line"/>
      <point x="468" y="686" type="line"/>
      <point x="355" y="686" type="line"/>
    </contour>
    <contour>
      <point x="380" y="726" type="line"/>
      <point x="495" y="726" type="line"/>
      <point x="422" y="833" type="line"/>
      <point x="307" y="833" type="line"/>
    </contour>
  </outline>
</glyph>
<glyph name="wacute" format="2">
  <advance width="611"/>
  <unicode hex="1E83"/>
  <outline>
    <contour>
      <point x="266" y="126" type="line"/>
      <point x="144" y="126" type="line"/>
      <point x="233" y="686" type="line"/>
      <point x="120" y="686" type="line"/>
      <point x="13" y="10" type="line"/>
      <point x="403" y="10" type="line"/>
      <point x="619" y="132" type="line"/>
      <point x="707" y="686" type="line"/>
      <point x="595" y="686" type="line"/>
      <point x="518" y="200" type="line"/>
      <point x="393" y="126" type="line"/>
      <point x="379" y="126" type="line"/>
      <point x="468" y="686" type="line"/>
      <point x="355" y="686" type="line"/>
    </contour>
    <contour>
      <point x="494" y="833" type="line"/>
      <point x="379" y="833" type="line"/>
      <point x="306" y="726" type="line"/>
      <point x="421" y="726" type="line"/>
    </contour>
  </outline>
</glyph>
<glyph name="Wdieresis" format="2">
  <advance width="611"/>
  <unicode hex="1E84"/>
  <outline>
    <contour>
      <point x="266" y="126" type="line"/>
      <point x="144" y="126" type="line"/>
      <point x="233" y="686" type="line"/>
      <point x="120" y="686" type="line"/>
      <point x="13" y="10" type="line"/>
      <point x="403" y="10" type="line"/>
      <point x="619" y="132" type="line"/>
      <point x="707" y="686" type="line"/>
      <point x="595" y="686" type="line"/>
      <point x="518" y="200" type="line"/>
      <point x="393" y="126" type="line"/>
      <point x="379" y="126" type="line"/>
      <point x="468" y="686" type="line"/>
      <point x="355" y="686" type="line"/>
    </contour>
    <contour>
      <point x="270" y="727" type="line"/>
      <point x="383" y="727" type="line"/>
      <point x="400" y="835" type="line"/>
      <point x="287" y="835" type="line"/>
    </contour>
    <contour>
      <point x="453" y="727" type="line"/>
      <point x="566" y="727" type="line"/>
      <point x="583" y="835" type="line"/>
      <point x="470" y="835" type="line"/>
    </contour>
  </outline>
</glyph>
<glyph name="Ygrave" format="2">
  <advance width="407"/>
  <unicode hex="1EF2"/>
  <outline>
    <contour>
      <point x="199" y="474" type="line"/>
      <point x="232" y="686" type="line"/>
      <point x="120" y="686" type="line"/>
      <point x="76" y="410" type="line"/>
      <point x="194" y="313" type="line"/>
      <point x="146" y="10" type="line"/>
      <point x="260" y="10" type="line"/>
      <point x="308" y="314" type="line"/>
      <point x="459" y="410" type="line"/>
      <point x="503" y="686" type="line"/>
      <point x="391" y="686" type="line"/>
      <point x="358" y="474" type="line"/>
      <point x="269" y="420" type="line"/>
    </contour>
    <contour>
      <point x="294" y="726" type="line"/>
      <point x="409" y="726" type="line"/>
      <point x="336" y="833" type="line"/>
      <point x="221" y="833" type="line"/>
    </contour>
  </outline>
</glyph>
<glyph name="endash" format="2">
  <advance width="475"/>
  <unicode hex="2013"/>
  <outline>
    <contour>
      <point x="500" y="432" type="line"/>
      <point x="100" y="432" type="line"/>
      <point x="82" y="318" type="line"/>
      <point x="482" y="318" type="line"/>
    </contour>
  </outline>
</glyph>
<glyph name="emdash" format="2">
  <advance width="621"/>
  <unicode hex="2014"/>
  <outline>
    <contour>
      <point x="651" y="432" type="line"/>
      <point x="100" y="432" type="line"/>
      <point x="82" y="318" type="line"/>
      <point x="633" y="318" type="line"/>
    </contour>
  </outline>
</glyph>
<glyph name="quotesinglbase" format="2">
  <advance width="115"/>
  <unicode hex="201A"/>
  <outline>
    <contour>
      <point x="126" y="10" type="line"/>
      <point x="152" y="177" type="line"/>
      <point x="39" y="177" type="line"/>
      <point x="13" y="10" type="line"/>
    </contour>
  </outline>
</glyph>
<glyph name="quotedblleft" format="2">
  <advance width="294"/>
  <unicode hex="201C"/>
  <outline>
    <contour>
      <point x="90" y="451" type="line"/>
      <point x="203" y="451" type="line"/>
      <point x="241" y="686" type="line"/>
      <point x="128" y="686" type="line"/>
    </contour>
    <contour>
      <point x="231" y="451" type="line"/>
      <point x="344" y="451" type="line"/>
      <point x="382" y="686" type="line"/>
      <point x="269" y="686" type="line"/>
    </contour>
  </outline>
</glyph>
<glyph name="quotedblbase" format="2">
  <advance width="310"/>
  <unicode hex="201E"/>
  <outline>
    <contour>
      <point x="139" y="10" type="line"/>
      <point x="165" y="177" type="line"/>
      <point x="52" y="177" type="line"/>
      <point x="26" y="10" type="line"/>
    </contour>
    <contour>
      <point x="288" y="10" type="line"/>
      <point x="314" y="177" type="line"/>
      <point x="201" y="177" type="line"/>
      <point x="175" y="10" type="line"/>
    </contour>
  </outline>
</glyph>
<glyph name="bullet" format="2">
  <advance width="315"/>
  <unicode hex="2022"/>
  <outline>
    <contour>
      <point x="95" y="366" type="curve" smooth="yes"/>
      <point x="95" y="301"/>
      <point x="147" y="249"/>
      <point x="212" y="249" type="curve" smooth="yes"/>
      <point x="276" y="249"/>
      <point x="330" y="301"/>
      <point x="330" y="366" type="curve" smooth="yes"/>
      <point x="330" y="430"/>
      <point x="276" y="484"/>
      <point x="212" y="484" type="curve" smooth="yes"/>
      <point x="147" y="484"/>
      <point x="95" y="430"/>
    </contour>
  </outline>
</glyph>
<glyph name="ellipsis" format="2">
  <advance width="504"/>
  <unicode hex="2026"/>
  <outline>
    <contour>
      <point x="36" y="69" type="line"/>
      <point x="149" y="69" type="line"/>
      <point x="166" y="177" type="line"/>
      <point x="53" y="177" type="line"/>
    </contour>
    <contour>
      <point x="204" y="69" type="line"/>
      <point x="317" y="69" type="line"/>
      <point x="334" y="177" type="line"/>
      <point x="221" y="177" type="line"/>
    </contour>
    <contour>
      <point x="372" y="69" type="line"/>
      <point x="485" y="69" type="line"/>
      <point x="502" y="177" type="line"/>
      <point x="389" y="177" type="line"/>
    </contour>
  </outline>
</glyph>
<glyph name="guilsinglleft" format="2">
  <advance width="407"/>
  <unicode hex="2039"/>
  <outline>
    <contour>
      <point x="210" y="341" type="line"/>
      <point x="465" y="509" type="line"/>
      <point x="488" y="649" type="line"/>
      <point x="83" y="384" type="line"/>
      <point x="69" y="298" type="line"/>
      <point x="390" y="33" type="line"/>
      <point x="412" y="174" type="line"/>
    </contour>
  </outline>
</glyph>
<glyph name="guilsinglright" format="2">
  <advance width="427"/>
  <unicode hex="203A"/>
  <outline>
    <contour>
      <point x="328" y="341" type="line"/>
      <point x="73" y="173" type="line"/>
      <point x="50" y="33" type="line"/>
      <point x="455" y="298" type="line"/>
      <point x="469" y="384" type="line"/>
      <point x="148" y="649" type="line"/>
      <point x="126" y="508" type="line"/>
    </contour>
  </outline>
</glyph>
<glyph name="Euro" format="2">
  <advance width="489"/>
  <unicode hex="20AC"/>
  <outline>
    <contour>
      <point x="243" y="334" type="line"/>
      <point x="254" y="406" type="line"/>
      <point x="360" y="406" type="line"/>
      <point x="378" y="520" type="line"/>
      <point x="272" y="520" type="line"/>
      <point x="280" y="569" type="line"/>
      <point x="454" y="569" type="line"/>
      <point x="442" y="494" type="line"/>
      <point x="554" y="494" type="line"/>
      <point x="585" y="686" type="line"/>
      <point x="186" y="686" type="line"/>
      <point x="160" y="520" type="line"/>
      <point x="111" y="520" type="line"/>
      <point x="93" y="406" type="line"/>
      <point x="142" y="406" type="line"/>
      <point x="130" y="334" type="line"/>
      <point x="78" y="334" type="line"/>
      <point x="60" y="220" type="line"/>
      <point x="112" y="220" type="line"/>
      <point x="79" y="10" type="line"/>
      <point x="478" y="10" type="line"/>
      <point x="510" y="213" type="line"/>
      <point x="397" y="213" type="line"/>
      <point x="385" y="133" type="line"/>
      <point x="211" y="133" type="line"/>
      <point x="225" y="220" type="line"/>
      <point x="327" y="220" type="line"/>
      <point x="345" y="334" type="line"/>
    </contour>
  </outline>
</glyph>
<glyph name="trademark" format="2">
  <advance width="479"/>
  <unicode hex="2122"/>
  <outline>
    <contour>
      <point x="118" y="635" type="line"/>
      <point x="171" y="635" type="line"/>
      <point x="133" y="394" type="line"/>
      <point x="181" y="394" type="line"/>
      <point x="220" y="635" type="line"/>
      <point x="271" y="635" type="line"/>
      <point x="279" y="686" type="line"/>
      <point x="126" y="686" type="line"/>
    </contour>
    <contour>
      <point x="344" y="394" type="line"/>
      <point x="393" y="394" type="line"/>
      <point x="432" y="635" type="line"/>
      <point x="438" y="635" type="line"/>
      <point x="481" y="604" type="line"/>
      <point x="448" y="394" type="line"/>
      <point x="496" y="394" type="line"/>
      <point x="534" y="633" type="line"/>
      <point x="457" y="686" type="line"/>
      <point x="289" y="686" type="line"/>
      <point x="243" y="394" type="line"/>
      <point x="292" y="394" type="line"/>
      <point x="330" y="635" type="line"/>
      <point x="383" y="635" type="line"/>
    </contour>
  </outline>
</glyph>
<glyph name="Germandbls" format="2">
  <advance width="507"/>
  <outline>
    <contour>
      <point x="25" y="10" type="line"/>
      <point x="137" y="10" type="line"/>
      <point x="209" y="495" type="line"/>
      <point x="311" y="569" type="line"/>
      <point x="379" y="575" type="line"/>
      <point x="240" y="396" type="line"/>
      <point x="218" y="255" type="line"/>
      <point x="313" y="331" type="line"/>
      <point x="411" y="328" type="line"/>
      <point x="390" y="192" type="line"/>
      <point x="294" y="133" type="line"/>
      <point x="208" y="133" type="line"/>
      <point x="189" y="10" type="line"/>
      <point x="318" y="10" type="line"/>
      <point x="489" y="113" type="line"/>
      <point x="539" y="425" type="line"/>
      <point x="391" y="425" type="line"/>
      <point x="580" y="685" type="line"/>
      <point x="288" y="685" type="line"/>
      <point x="108" y="563" type="line"/>
    </contour>
  </outline>
</glyph>
<glyph name=".notdef" format="2">
  <advance width="658"/>
  <outline>
    <contour>
      <point x="112" y="-23" type="line"/>
      <point x="644" y="-23" type="line"/>
      <point x="644" y="738" type="line"/>
      <point x="112" y="738" type="line"/>
    </contour>
    <contour>
      <point x="178" y="672" type="line"/>
      <point x="578" y="672" type="line"/>
      <point x="578" y="43" type="line"/>
      <point x="178" y="43" type="line"/>
    </contour>
  </outline>
</glyph>
<glyph name="caroncomb.alt" format="2">
  <advance width="833"/>
  <outline>
    <contour>
      <point x="435" y="833" type="line"/>
      <point x="320" y="833" type="line"/>
      <point x="279" y="771" type="line"/>
      <point x="237" y="831" type="line"/>
      <point x="127" y="831" type="line"/>
      <point x="202" y="726" type="line"/>
      <point x="362" y="726" type="line"/>
    </contour>
  </outline>
</glyph>
<glyph name="cedillacomb" format="2">
  <advance width="481"/>
  <outline>
    <contour>
      <point x="270" y="-63" type="line"/>
      <point x="285" y="10" type="line"/>
      <point x="178" y="10" type="line"/>
      <point x="154" y="-119" type="line"/>
      <point x="311" y="-198" type="line"/>
      <point x="140" y="-198" type="line"/>
      <point x="122" y="-301" type="line"/>
      <point x="401" y="-301" type="line"/>
      <point x="428" y="-140" type="line"/>
    </contour>
  </outline>
</glyph>
<glyph name="guillemetleft" format="2">
  <advance width="633"/>
  <outline>
    <contour>
      <point x="406" y="341" type="line"/>
      <point x="661" y="509" type="line"/>
      <point x="684" y="649" type="line"/>
      <point x="279" y="384" type="line"/>
      <point x="265" y="298" type="line"/>
      <point x="586" y="33" type="line"/>
      <point x="608" y="174" type="line"/>
    </contour>
    <contour>
      <point x="176" y="341" type="line"/>
      <point x="431" y="509" type="line"/>
      <point x="454" y="649" type="line"/>
      <point x="49" y="384" type="line"/>
      <point x="35" y="298" type="line"/>
      <point x="356" y="33" type="line"/>
      <point x="378" y="174" type="line"/>
    </contour>
  </outline>
</glyph>
<glyph name="guillemetright" format="2">
  <advance width="633"/>
  <outline>
    <contour>
      <point x="313" y="341" type="line"/>
      <point x="58" y="173" type="line"/>
      <point x="35" y="33" type="line"/>
      <point x="440" y="298" type="line"/>
      <point x="454" y="384" type="line"/>
      <point x="133" y="649" type="line"/>
      <point x="111" y="508" type="line"/>
    </contour>
    <contour>
      <point x="543" y="341" type="line"/>
      <point x="288" y="173" type="line"/>
      <point x="265" y="33" type="line"/>
      <point x="670" y="298" type="line"/>
      <point x="684" y="384" type="line"/>
      <point x="363" y="649" type="line"/>
      <point x="341" y="508" type="line"/>
    </contour>
  </outline>
</glyph>
<glyph name="hungarumlautcomb" format="2">
  <advance width="686"/>
  <outline>
    <contour>
      <point x="435" y="833" type="line"/>
      <point x="320" y="833" type="line"/>
      <point x="247" y="726" type="line"/>
      <point x="362" y="726" type="line"/>
    </contour>
    <contour>
      <point x="604" y="833" type="line"/>
      <point x="489" y="833" type="line"/>
      <point x="416" y="726" type="line"/>
      <point x="531" y="726" type="line"/>
    </contour>
  </outline>
</glyph>
<glyph name="periodcentered.loclCAT.case" format="2">
  <advance width="184"/>
  <outline>
    <contour>
      <point x="75" y="312" type="line"/>
      <point x="214" y="312" type="line"/>
      <point x="236" y="444" type="line"/>
      <point x="97" y="444" type="line"/>
    </contour>
  </outline>
</glyph>
